<svg width="1920" height="419" viewBox="0 0 1920 419" fill="none" xmlns="http://www.w3.org/2000/svg">
<path d="M1910.5 342C1134.9 404.8 307.333 368.167 -9.5 342L-312 0L1996 62.5C2290.67 129.5 2686.1 279.2 1910.5 342Z" fill="white"/>
<circle cx="959" cy="349" r="70" fill="white"/>
<path fill-rule="evenodd" clip-rule="evenodd" d="M959 304C934.156 304 914 324.156 914 349C914 373.844 934.156 394 959 394C983.844 394 1004 373.844 1004 349C1004 324.156 983.844 304 959 304Z" fill="#2B2A29"/>
<path fill-rule="evenodd" clip-rule="evenodd" d="M959 306.758C935.685 306.758 916.783 325.66 916.783 348.975C916.783 372.29 935.685 391.192 959 391.192C982.315 391.192 1001.22 372.29 1001.22 348.975C1001.22 325.66 982.315 306.758 959 306.758Z" fill="#FFEC00"/>
<path fill-rule="evenodd" clip-rule="evenodd" d="M959 323.078C944.685 323.078 933.078 334.685 933.078 349C933.078 363.315 944.685 374.922 959 374.922C973.315 374.922 984.922 363.315 984.922 349C984.922 334.685 973.315 323.078 959 323.078Z" fill="#2B2A29"/>
<path fill-rule="evenodd" clip-rule="evenodd" d="M959 325.259C945.889 325.259 935.284 335.889 935.284 348.975C935.284 362.086 945.914 372.691 959 372.691C972.111 372.691 982.716 362.061 982.716 348.975C982.716 335.863 972.086 325.259 959 325.259Z" fill="#FFED00"/>
<path d="M925.432 340.05C922.524 338.571 921.872 336.089 923.526 332.63L922.599 332.153L924.003 329.446L924.93 329.922C926.785 326.588 929.167 325.66 932.075 327.164C932.727 327.49 933.279 327.891 933.705 328.343C934.131 328.794 934.432 329.245 934.632 329.721C934.808 330.198 934.908 330.724 934.908 331.276C934.908 331.827 934.833 332.379 934.682 332.93C934.532 333.482 934.331 334.033 934.056 334.635L934.983 335.111L933.604 337.794L932.677 337.318C932.351 337.894 932.025 338.396 931.674 338.847C931.323 339.273 930.922 339.674 930.471 340C930.019 340.326 929.543 340.552 929.042 340.677C928.54 340.802 927.989 340.827 927.387 340.752C926.785 340.677 926.134 340.451 925.482 340.125L925.432 340.05ZM926.886 337.217C928.139 337.869 929.217 337.443 930.095 335.939L926.084 333.883C925.357 335.462 925.632 336.565 926.911 337.217H926.886ZM931.423 333.306C932.125 331.727 931.85 330.624 930.571 329.972C929.292 329.32 928.24 329.747 927.387 331.251L931.398 333.306H931.423Z" fill="#2B2A29"/>
<path d="M939.245 328.593L932.652 318.315L935.334 316.585L938.568 321.624L940.499 313.201L941.451 312.599L948.07 322.902L945.362 324.657L942.103 319.593L940.173 327.992L939.245 328.593Z" fill="#2B2A29"/>
<path d="M949.022 312.925L948.646 310.167L957.646 308.989L958.022 311.746L955.064 312.148L956.292 321.473L953.234 321.875L952.006 312.549L949.022 312.925Z" fill="#2B2A29"/>
<path d="M961.582 320.772L964.916 309.039L968 309.916L966.772 314.178L970.407 315.206L971.61 310.944L974.694 311.797L971.359 323.554L968.276 322.677L969.604 317.964L965.994 316.936L964.666 321.649L961.582 320.772Z" fill="#2B2A29"/>
<path d="M974.192 325.384L982.164 316.159L987.93 321.148L986.1 323.253L982.716 320.295L981.588 321.599L984.721 324.306L982.891 326.412L979.758 323.705L978.379 325.309L981.889 328.368L980.058 330.473L974.192 325.384Z" fill="#2B2A29"/>
<path d="M987.279 329.22C988.006 328.894 988.733 328.694 989.46 328.618C990.187 328.543 990.838 328.593 991.44 328.769C992.042 328.944 992.618 329.195 993.145 329.546C993.671 329.897 994.148 330.298 994.549 330.774C994.95 331.251 995.276 331.777 995.526 332.354C995.752 332.83 995.902 333.306 996.003 333.808C996.103 334.309 996.153 334.836 996.128 335.362C996.103 335.889 996.003 336.39 995.827 336.891C995.652 337.368 995.401 337.844 995.025 338.32C994.649 338.772 994.198 339.173 993.671 339.524L992.418 336.741C993.345 335.863 993.521 334.811 992.944 333.557C992.568 332.73 991.992 332.178 991.189 331.928C990.387 331.677 989.535 331.777 988.607 332.178C988.056 332.429 987.604 332.78 987.228 333.206C986.852 333.632 986.627 334.134 986.526 334.685C986.426 335.237 986.501 335.788 986.752 336.34C987.028 336.967 987.429 337.418 987.93 337.719C988.432 338.019 989.008 338.12 989.66 338.019L990.914 340.802C990.262 341.003 989.635 341.103 989.033 341.078C988.432 341.053 987.88 340.953 987.404 340.777C986.928 340.577 986.476 340.326 986.05 340C985.624 339.674 985.273 339.298 984.947 338.872C984.646 338.446 984.37 338.019 984.145 337.518C983.869 336.941 983.694 336.365 983.593 335.738C983.493 335.136 983.493 334.51 983.593 333.883C983.694 333.256 983.869 332.655 984.145 332.103C984.421 331.551 984.822 331 985.348 330.524C985.875 330.022 986.501 329.621 987.253 329.27L987.279 329.22Z" fill="#2B2A29"/>
<path d="M934.858 380.588L941.451 370.309L944.134 372.039L941.627 375.925L941.827 376.05C942.304 376.351 942.755 376.551 943.181 376.602C943.607 376.652 943.958 376.652 944.234 376.576C944.51 376.501 944.836 376.301 945.162 375.95C945.487 375.624 945.738 375.323 945.914 375.097C946.089 374.872 946.315 374.496 946.641 373.994C946.666 373.944 946.691 373.919 946.691 373.894C946.716 373.869 946.716 373.844 946.741 373.819C946.766 373.794 946.791 373.744 946.791 373.719L949.474 375.448C949.448 375.498 949.423 375.549 949.373 375.624C949.173 375.925 949.022 376.15 948.922 376.301C948.822 376.451 948.671 376.652 948.496 376.927C948.32 377.203 948.145 377.404 948.02 377.554C947.894 377.705 947.744 377.88 947.543 378.081C947.343 378.281 947.167 378.457 946.992 378.582C946.816 378.707 946.641 378.833 946.39 378.958C946.164 379.109 945.939 379.209 945.713 379.284C945.487 379.359 945.237 379.409 944.961 379.46C944.685 379.51 944.384 379.535 944.084 379.535L943.983 385.852L943.733 386.253L940.825 384.373L941.125 378.958C940.875 378.858 940.524 378.657 940.072 378.382L937.565 382.292L934.883 380.563L934.858 380.588Z" fill="#2B2A29"/>
<path d="M946.816 387.482L946.916 387.031L954.513 376.351L955.841 376.602L959.05 389.337L958.95 389.763L955.967 389.212L954.187 381.591L949.824 388.059L946.816 387.482Z" fill="#2B2A29"/>
<path d="M958.95 377.931L958.85 377.454L962.259 376.727L965.443 380.663L965.518 380.638L966.646 375.8L969.955 375.098L970.056 375.574L966.822 388.234L963.538 388.936L963.462 388.61L964.515 384.373L958.95 377.931Z" fill="#2B2A29"/>
<path d="M976.749 384.975L970.908 374.245L978.604 370.059L979.933 372.515L974.994 375.198L975.721 376.527L977.702 375.449C978.253 375.148 978.805 374.947 979.357 374.872C979.908 374.772 980.409 374.797 980.836 374.897C981.287 374.997 981.713 375.173 982.089 375.398C982.49 375.624 982.816 375.925 983.067 376.301C983.318 376.652 983.518 377.053 983.694 377.454C983.869 377.855 983.919 378.307 983.919 378.758C983.894 379.209 983.819 379.66 983.669 380.086C983.518 380.513 983.242 380.939 982.891 381.34C982.515 381.741 982.039 382.117 981.487 382.418L976.774 384.975H976.749ZM978.153 381.039L980.109 379.961C980.334 379.836 980.535 379.66 980.66 379.46C980.786 379.259 980.836 379.059 980.836 378.858C980.836 378.657 980.76 378.457 980.685 378.281C980.585 378.106 980.46 377.956 980.284 377.83C980.109 377.705 979.908 377.655 979.682 377.655C979.457 377.655 979.206 377.705 978.981 377.83L977.025 378.908L978.178 381.014L978.153 381.039Z" fill="#2B2A29"/>
<path fill-rule="evenodd" clip-rule="evenodd" d="M968.928 361.008C969.028 360.557 969.98 359.479 970.382 359.153C970.532 359.028 970.682 359.003 970.758 358.852C970.783 358.827 970.808 358.777 970.808 358.752C971.033 358.226 971.234 358.301 971.334 357.85C971.46 357.348 971.234 356.571 972.111 356.37C973.791 355.969 973.064 357.173 973.039 357.248C972.964 357.499 973.064 357.423 972.914 357.624C972.387 358.351 972.111 358.451 971.384 358.953C971.109 359.153 970.582 359.454 970.407 359.655C970.281 359.805 970.306 359.88 970.181 360.006C970.006 360.206 969.805 360.331 969.604 360.532C969.504 360.632 969.153 360.983 968.928 361.008ZM952.106 351.457L952.081 354.716C951.404 354.941 950.627 355.092 949.95 355.267C949.574 355.368 949.198 355.468 948.847 355.543C947.318 355.894 949.173 355.994 946.841 356.245C946.791 356.245 946.691 356.245 946.641 356.27C946.39 356.32 946.54 356.27 946.44 356.345C946.315 356.546 946.365 357.123 946.39 357.398C946.44 357.499 952.031 359.955 952.632 360.231C953.159 360.482 953.259 360.382 953.836 360.206C954.187 360.106 954.663 359.98 955.014 359.855C955.064 359.429 955.039 359.028 955.014 358.602L953.109 358.902V351.056C953.109 350.755 953.76 350.228 953.911 349.777L961.607 351.783C960.93 352.084 954.763 353.713 954.111 353.889V354.616C954.813 354.515 955.791 354.139 956.468 353.964L961.181 352.635C961.958 352.435 962.936 351.933 963.487 352.409L954.111 355.618V356.797C954.638 356.746 963.362 353.688 964.791 353.212C965.292 353.036 965.267 352.936 965.844 353.136C966.345 353.287 969.655 354.34 969.88 354.315L969.905 353.362C969.554 353.136 964.766 351.833 963.663 351.482C963.437 351.407 962.911 351.382 962.836 351.131C962.936 350.955 963.162 350.98 963.412 350.93L965.393 350.454C966.797 350.053 966.621 349.802 966.997 349.627C967.123 349.577 967.524 349.451 967.674 349.426C968.025 349.677 967.925 349.602 968.351 349.777C968.476 349.978 968.476 350.304 968.577 350.529C968.677 350.78 968.752 350.98 968.902 351.206C969.153 351.607 969.479 351.883 970.056 352.008C970.106 352.911 970.181 353.638 970.281 354.465C970.482 355.944 970.457 355.543 970.231 356.822C969.178 357.198 968.526 358.326 968.025 358.953C967.699 359.354 967.724 359.429 967.499 359.905C967.273 360.457 966.772 361.735 967.448 362.111C967.699 362.237 968.426 362.337 968.727 362.237C968.827 362.212 969.028 361.961 969.103 361.886C969.379 361.61 969.203 361.61 969.354 361.384C969.479 361.259 969.93 361.058 970.131 360.908C970.908 360.357 971.51 359.73 972.187 359.053C972.813 358.451 973.415 357.574 973.691 356.646C973.791 356.295 973.891 355.919 973.992 355.618C974.292 355.618 974.343 355.643 974.518 355.744C974.493 356.345 974.167 356.646 973.866 357.097C973.44 357.774 973.591 357.95 973.641 358.777C973.992 358.852 974.643 358.777 975.045 358.777C975.822 358.777 976.975 359.028 977.677 358.702C978.128 358.476 978.103 358.15 978.078 357.649C977.852 357.524 977.426 357.298 977.15 357.223C976.85 357.148 976.85 357.223 976.624 357.072C975.621 356.421 976.022 357.875 974.518 357.448C974.443 357.148 974.443 356.822 974.568 356.571C974.694 356.32 974.769 356.12 974.869 355.869C975.922 355.794 976.925 356.496 977.928 356.646C978.479 356.746 978.604 356.646 978.955 356.396C979.783 355.844 980.485 355.343 981.111 354.641C981.312 354.415 981.237 353.838 981.237 353.462C980.961 353.513 980.008 354.24 979.758 354.44C979.507 354.616 979.306 354.766 979.031 354.992C978.855 355.117 978.855 355.117 978.705 355.292C978.604 355.418 978.504 355.468 978.279 355.443C977.852 355.368 974.493 354.515 974.318 354.39C974.318 354.365 974.318 354.34 974.292 354.34C974.292 354.39 974.267 353.939 974.443 353.212C974.543 352.76 974.618 352.485 974.643 351.983C974.919 352.033 975.546 352.334 975.947 352.435C976.448 352.56 976.925 352.66 977.451 352.635L978.554 351.432C979.056 350.63 978.83 350.454 978.454 349.802C977.251 347.671 975.496 346.543 973.891 344.889L972.638 343.76C972.136 343.334 972.061 343.134 971.184 342.858C971.184 342.682 971.209 342.582 971.334 342.457C971.71 342.106 972.011 342.958 972.989 343.309C973.866 343.635 974.969 343.56 975.546 343.033C976.674 342.006 976.774 339.574 976.198 337.844C975.897 336.916 975.446 336.415 974.944 335.889C973.716 334.56 971.635 334.76 970.557 336.189C969.93 337.017 969.955 337.719 969.955 338.847L969.579 338.872V339.248L970.231 339.223C970.231 339.373 970.256 339.524 970.256 339.674C966.822 339.824 962.184 340.351 957.997 341.329C957.872 341.178 957.897 341.153 957.822 341.028C957.671 340.802 957.696 340.827 957.396 340.802C956.819 340.727 956.844 340.827 956.568 340.376C954.337 340.226 954.437 340.852 954.713 342.181C954.813 342.708 954.763 342.858 954.738 343.409C955.039 343.61 954.989 343.66 955.014 344.086C955.866 344.337 955.039 344.613 955.816 345.014C955.866 345.415 955.716 345.39 956.092 345.565C956.167 346.017 955.967 346.117 956.318 346.368C956.518 346.518 956.568 346.694 956.744 346.944C957.596 348.198 959.476 349.627 959.727 350.128L954.362 348.749C954.337 348.574 954.563 347.746 954.588 347.421C954.863 344.513 954.136 342.081 952.733 339.749C951.178 337.142 947.343 334.209 944.409 336.064C946.691 335.838 949.524 337.242 951.304 340.226C952.632 342.457 954.663 349.451 951.78 351.407C951.88 351.407 951.98 351.407 952.081 351.382L952.106 351.457ZM948.696 356.37C949.047 356.22 951.68 355.518 952.131 355.493V357.549C951.379 357.499 950.251 356.997 949.524 356.696C949.298 356.596 948.872 356.496 948.721 356.37H948.696ZM961.006 347.145C962.334 347.145 962.184 347.345 962.485 347.496C963.162 347.822 964.54 347.797 964.816 348.348C964.766 348.423 964.816 348.373 964.716 348.423C964.691 348.448 964.616 348.474 964.591 348.499C963.964 348.799 963.036 349.025 962.359 348.875C961.582 348.699 961.081 348.022 961.006 347.12V347.145ZM970.156 347.295C970.281 347.195 970.231 347.245 970.407 347.17C971.409 346.819 972.738 346.067 973.641 346.017C974.318 345.992 975.571 347.496 976.298 348.097C976.774 348.499 977.426 349.201 977.802 349.802C978.003 350.128 978.379 350.429 978.153 350.88C977.877 351.457 977.226 350.98 977.075 350.855C976.749 350.655 976.423 350.454 976.097 350.228C975.646 349.902 974.694 348.574 974.343 349.627C974.217 349.978 974.267 351.958 974.067 352.535C973.992 352.735 973.916 353.487 973.691 353.788L973.365 353.989C972.939 354.315 972.086 354.139 971.936 353.487C971.71 352.46 971.886 351.331 971.735 350.855C971.685 350.68 971.61 350.63 971.535 350.479C971.46 350.354 971.435 350.178 971.409 350.028C971.259 349.552 970.833 348.799 970.908 348.273C971.259 348.273 972.262 348.373 972.487 348.198C972.513 347.897 972.538 348.072 972.362 347.947C972.262 347.872 972.187 347.847 972.061 347.822C971.184 347.646 971.71 347.822 970.758 347.496C970.156 347.295 970.482 347.571 970.131 347.245L970.156 347.295ZM961.933 346.443C961.808 345.49 963.563 343.886 964.064 343.61C965.343 342.908 966.295 342.607 968 342.607C968.928 342.607 969.454 342.507 970.131 342.933C970.331 343.058 970.457 343.058 970.657 343.134C971.435 343.384 972.086 343.961 972.513 344.387C973.415 345.29 972.813 345.49 971.785 345.816C971.134 346.017 969.955 346.343 969.228 346.368C969.279 346.292 969.228 346.343 969.304 346.267L969.83 345.992C971.961 344.914 969.78 343.51 966.922 344.036C965.969 344.212 965.142 344.939 964.44 345.34C964.24 345.44 964.039 345.54 963.813 345.666C963.563 345.791 963.487 345.967 963.262 346.067C962.986 346.217 962.71 346.092 962.535 346.292C962.359 346.468 962.234 346.568 961.883 346.443H961.933ZM955.866 342.733C956.042 342.682 956.393 342.657 956.518 342.607C956.744 342.482 956.518 342.532 956.769 342.407C956.944 342.331 956.894 342.432 957.045 342.306C957.27 342.156 957.37 341.554 957.772 341.554C957.997 341.855 957.922 342.357 957.721 342.607C957.571 342.808 957.571 342.783 957.471 343.033C957.446 343.109 956.593 343.911 956.092 343.66C955.816 343.51 955.766 343.109 955.891 342.708L955.866 342.733ZM958.123 344.262C958.097 344.136 957.947 343.56 957.897 343.435C957.847 343.309 957.521 343.209 957.872 342.682C957.972 342.532 958.022 342.532 958.072 342.382C958.123 342.181 958.097 342.106 958.248 342.031C959.852 341.228 969.228 340.175 970.306 340.226L970.256 340.652L971.685 340.627L971.735 341.93L970.006 341.655L969.529 342.256C966.822 342.306 965.819 342.031 963.838 343.359C962.836 344.036 961.833 344.939 961.507 346.142C961.357 346.694 961.256 346.393 960.504 346.844C960.404 347.37 960.604 347.797 960.354 348.323C960.228 348.574 959.777 349 959.376 348.875C959.827 348.624 960.178 348.423 960.253 347.696C960.354 346.618 960.178 346.744 959.276 346.694C959.226 346.318 959.15 346.092 958.925 345.816L958.423 345.114C957.746 345.089 958.173 345.766 956.969 345.766L957.295 345.591C958.223 345.214 957.295 344.337 957.345 343.435C957.872 343.585 957.621 344.086 958.123 344.312V344.262ZM970.758 339.298C971.259 339.223 972.538 339.022 972.989 339.097V339.699C972.513 339.824 971.259 340 970.758 339.875V339.298ZM966.22 363.29C966.245 362.412 967.223 362.187 966.621 361.51L965.919 362.763C965.769 363.039 965.393 363.816 965.518 364.217C965.643 364.568 965.669 364.017 965.744 364.944C965.819 365.747 966.019 366.423 966.571 366.95C967.423 367.752 969.053 367.401 969.128 366.549C969.178 365.947 969.228 365.32 968.953 364.819C968.552 364.092 968.677 364.117 968.652 363.214C968.526 363.164 968.577 363.189 968.501 363.164C968.476 363.164 968.476 363.164 968.451 363.139L968.326 363.089L968.451 362.588L967.323 362.763C967.223 363.089 967.298 363.214 966.972 363.24C966.747 363.24 966.396 363.29 966.195 363.265L966.22 363.29ZM961.006 346.092C961.657 345.992 961.306 346.067 961.708 345.214C961.883 344.889 962.134 344.487 962.359 344.287L962.284 344.262L962.259 344.237C962.109 344.136 962.134 344.061 962.084 344.011H961.733L961.657 343.76C961.281 343.76 961.231 343.986 961.031 344.136C960.805 344.287 960.379 344.187 960.078 344.187C959.276 344.187 959.326 344.337 958.774 344.688C958.724 345.841 960.68 347.571 960.98 346.117L961.006 346.092ZM978.805 353.287C979.181 353.086 979.582 352.861 979.532 352.284C979.507 352.109 979.231 351.081 979.156 350.955L978.955 350.98C978.855 351.206 978.93 351.357 978.78 351.582L977.752 352.811C977.877 352.911 978.153 352.936 978.329 353.011C978.529 353.111 978.604 353.212 978.805 353.287ZM950.602 340.376C948.07 336.164 943.432 335.111 941.276 337.343C943.582 336.515 946.941 337.819 948.947 341.153C950.251 343.334 952.231 350.203 949.323 352.008C949.524 352.008 949.724 352.008 949.95 351.983C954.387 351.156 952.081 342.833 950.602 340.376ZM948.019 341.579C944.71 336.089 937.616 336.265 938.167 342.532C938.568 347.22 942.078 353.061 947.418 352.56C951.63 351.783 949.423 343.911 948.019 341.579ZM939.596 345.39C939.797 345.315 940.047 345.54 940.173 345.891C940.298 346.242 940.248 346.568 940.047 346.643C939.847 346.719 939.596 346.493 939.471 346.142C939.345 345.791 939.396 345.465 939.596 345.39ZM944.51 345.139L940.398 346.694C940.549 346.518 940.574 346.167 940.448 345.816C940.323 345.465 940.072 345.189 939.847 345.164L943.883 343.76C944.585 343.986 944.811 344.813 944.51 345.139ZM975.446 343.435C977.677 343.911 978.429 335.111 974.292 335.162C974.744 335.287 975.17 335.513 975.546 335.914C977.627 338.145 976.85 343.384 975.471 343.435H975.446ZM976.599 343.159C978.253 343.51 979.156 335.763 975.521 335.412C978.479 336.214 977.727 342.657 976.599 343.159Z" fill="#2B2A29"/>
</svg>
