<svg fill="none" height="419" viewBox="0 0 1920 419" width="1920" xmlns="http://www.w3.org/2000/svg"><path d="m1910.5 342c-775.6 62.8-1603.167 26.167-1920 0l-302.5-342 2308 62.5c294.67 67 690.1 216.7-85.5 279.5z" fill="#fff"/><circle cx="959" cy="349" fill="#fff" r="70"/><path clip-rule="evenodd" d="m959 304c-24.844 0-45 20.156-45 45s20.156 45 45 45 45-20.156 45-45-20.156-45-45-45z" fill="#2b2a29" fill-rule="evenodd"/><path clip-rule="evenodd" d="m959 306.758c-23.315 0-42.217 18.902-42.217 42.217s18.902 42.217 42.217 42.217 42.22-18.902 42.22-42.217-18.905-42.217-42.22-42.217z" fill="#ffec00" fill-rule="evenodd"/><path clip-rule="evenodd" d="m959 323.078c-14.315 0-25.922 11.607-25.922 25.922s11.607 25.922 25.922 25.922 25.922-11.607 25.922-25.922-11.607-25.922-25.922-25.922z" fill="#2b2a29" fill-rule="evenodd"/><path clip-rule="evenodd" d="m959 325.259c-13.111 0-23.716 10.63-23.716 23.716 0 13.111 10.63 23.716 23.716 23.716 13.111 0 23.716-10.63 23.716-23.716 0-13.112-10.63-23.716-23.716-23.716z" fill="#ffed00" fill-rule="evenodd"/><g fill="#2b2a29"><path d="m925.432 340.05c-2.908-1.479-3.56-3.961-1.906-7.42l-.927-.477 1.404-2.707.927.476c1.855-3.334 4.237-4.262 7.145-2.758.652.326 1.204.727 1.63 1.179.426.451.727.902.927 1.378.176.477.276 1.003.276 1.555 0 .551-.075 1.103-.226 1.654-.15.552-.351 1.103-.626 1.705l.927.476-1.379 2.683-.927-.476c-.326.576-.652 1.078-1.003 1.529-.351.426-.752.827-1.203 1.153-.452.326-.928.552-1.429.677-.502.125-1.053.15-1.655.075s-1.253-.301-1.905-.627zm1.454-2.833c1.253.652 2.331.226 3.209-1.278l-4.011-2.056c-.727 1.579-.452 2.682.827 3.334zm4.537-3.911c.702-1.579.427-2.682-.852-3.334s-2.331-.225-3.184 1.279l4.011 2.055z"/><path d="m939.245 328.593-6.593-10.278 2.682-1.73 3.234 5.039 1.931-8.423.952-.602 6.619 10.303-2.708 1.755-3.259-5.064-1.93 8.399z"/><path d="m949.022 312.925-.376-2.758 9-1.178.376 2.757-2.958.402 1.228 9.325-3.058.402-1.228-9.326z"/><path d="m961.582 320.772 3.334-11.733 3.084.877-1.228 4.262 3.635 1.028 1.203-4.262 3.084.853-3.335 11.757-3.083-.877 1.328-4.713-3.61-1.028-1.328 4.713z"/><path d="m974.192 325.384 7.972-9.225 5.766 4.989-1.83 2.105-3.384-2.958-1.128 1.304 3.133 2.707-1.83 2.106-3.133-2.707-1.379 1.604 3.51 3.059-1.831 2.105z"/><path d="m987.279 329.22c.727-.326 1.454-.526 2.181-.602.727-.075 1.378-.025 1.98.151.602.175 1.178.426 1.705.777.526.351 1.003.752 1.404 1.228.401.477.727 1.003.977 1.58.226.476.376.952.477 1.454.1.501.15 1.028.125 1.554-.025.527-.125 1.028-.301 1.529-.175.477-.426.953-.802 1.429-.376.452-.827.853-1.354 1.204l-1.253-2.783c.927-.878 1.103-1.93.526-3.184-.376-.827-.952-1.379-1.755-1.629-.802-.251-1.654-.151-2.582.25-.551.251-1.003.602-1.379 1.028s-.601.928-.702 1.479c-.1.552-.025 1.103.226 1.655.276.627.677 1.078 1.178 1.379.502.3 1.078.401 1.73.3l1.254 2.783c-.652.201-1.279.301-1.881.276-.601-.025-1.153-.125-1.629-.301-.476-.2-.928-.451-1.354-.777s-.777-.702-1.103-1.128c-.301-.426-.577-.853-.802-1.354-.276-.577-.451-1.153-.552-1.78-.1-.602-.1-1.228 0-1.855.101-.627.276-1.228.552-1.78s.677-1.103 1.203-1.579c.527-.502 1.153-.903 1.905-1.254z"/><path d="m934.858 380.588 6.593-10.279 2.683 1.73-2.507 3.886.2.125c.477.301.928.501 1.354.552.426.05.777.05 1.053-.026.276-.075.602-.275.928-.626.325-.326.576-.627.752-.853.175-.225.401-.601.727-1.103.025-.05.05-.075.05-.1.025-.025.025-.05.05-.075s.05-.075.05-.1l2.683 1.729c-.026.05-.051.101-.101.176-.2.301-.351.526-.451.677-.1.15-.251.351-.426.626-.176.276-.351.477-.476.627-.126.151-.276.326-.477.527-.2.2-.376.376-.551.501-.176.125-.351.251-.602.376-.226.151-.451.251-.677.326s-.476.125-.752.176c-.276.05-.577.075-.877.075l-.101 6.317-.25.401-2.908-1.88.3-5.415c-.25-.1-.601-.301-1.053-.576l-2.507 3.91-2.682-1.729z"/><path d="m946.816 387.482.1-.451 7.597-10.68 1.328.251 3.209 12.735-.1.426-2.983-.551-1.78-7.621-4.363 6.468z"/><path d="m958.95 377.931-.1-.477 3.409-.727 3.184 3.936.075-.025 1.128-4.838 3.309-.702.101.476-3.234 12.66-3.284.702-.076-.326 1.053-4.237z"/><path d="m976.749 384.975-5.841-10.73 7.696-4.186 1.329 2.456-4.939 2.683.727 1.329 1.981-1.078c.551-.301 1.103-.502 1.655-.577.551-.1 1.052-.075 1.479.025.451.1.877.276 1.253.501.401.226.727.527.978.903.251.351.451.752.627 1.153.175.401.225.853.225 1.304-.025.451-.1.902-.25 1.328-.151.427-.427.853-.778 1.254-.376.401-.852.777-1.404 1.078l-4.713 2.557zm1.404-3.936 1.956-1.078c.225-.125.426-.301.551-.501.126-.201.176-.401.176-.602s-.076-.401-.151-.577c-.1-.175-.225-.325-.401-.451-.175-.125-.376-.175-.602-.175-.225 0-.476.05-.701.175l-1.956 1.078 1.153 2.106z"/><path clip-rule="evenodd" d="m968.928 361.008c.1-.451 1.052-1.529 1.454-1.855.15-.125.3-.15.376-.301.025-.025.05-.075.05-.1.225-.526.426-.451.526-.902.126-.502-.1-1.279.777-1.48 1.68-.401.953.803.928.878-.075.251.025.175-.125.376-.527.727-.803.827-1.53 1.329-.275.2-.802.501-.977.702-.126.15-.101.225-.226.351-.175.2-.376.325-.577.526-.1.1-.451.451-.676.476zm-16.822-9.551-.025 3.259c-.677.225-1.454.376-2.131.551-.376.101-.752.201-1.103.276-1.529.351.326.451-2.006.702-.05 0-.15 0-.2.025-.251.05-.101 0-.201.075-.125.201-.075.778-.05 1.053.05.101 5.641 2.557 6.242 2.833.527.251.627.151 1.204-.025.351-.1.827-.226 1.178-.351.05-.426.025-.827 0-1.253l-1.905.3v-7.846c0-.301.651-.828.802-1.279l7.696 2.006c-.677.301-6.844 1.93-7.496 2.106v.727c.702-.101 1.68-.477 2.357-.652l4.713-1.329c.777-.2 1.755-.702 2.306-.226l-9.376 3.209v1.179c.527-.051 9.251-3.109 10.68-3.585.501-.176.476-.276 1.053-.076.501.151 3.811 1.204 4.036 1.179l.025-.953c-.351-.226-5.139-1.529-6.242-1.88-.226-.075-.752-.1-.827-.351.1-.176.326-.151.576-.201l1.981-.476c1.404-.401 1.228-.652 1.604-.827.126-.05.527-.176.677-.201.351.251.251.176.677.351.125.201.125.527.226.752.1.251.175.451.325.677.251.401.577.677 1.154.802.05.903.125 1.63.225 2.457.201 1.479.176 1.078-.05 2.357-1.053.376-1.705 1.504-2.206 2.131-.326.401-.301.476-.526.952-.226.552-.727 1.83-.051 2.206.251.126.978.226 1.279.126.1-.025.301-.276.376-.351.276-.276.1-.276.251-.502.125-.125.576-.326.777-.476.777-.551 1.379-1.178 2.056-1.855.626-.602 1.228-1.479 1.504-2.407.1-.351.2-.727.301-1.028.3 0 .351.025.526.126-.025.601-.351.902-.652 1.353-.426.677-.275.853-.225 1.68.351.075 1.002 0 1.404 0 .777 0 1.93.251 2.632-.075.451-.226.426-.552.401-1.053-.226-.125-.652-.351-.928-.426-.3-.075-.3 0-.526-.151-1.003-.651-.602.803-2.106.376-.075-.3-.075-.626.05-.877.126-.251.201-.451.301-.702 1.053-.075 2.056.627 3.059.777.551.1.676 0 1.027-.25.828-.552 1.53-1.053 2.156-1.755.201-.226.126-.803.126-1.179-.276.051-1.229.778-1.479.978-.251.176-.452.326-.727.552-.176.125-.176.125-.326.3-.101.126-.201.176-.426.151-.427-.075-3.786-.928-3.961-1.053 0-.025 0-.05-.026-.05 0 .05-.025-.401.151-1.128.1-.452.175-.727.2-1.229.276.05.903.351 1.304.452.501.125.978.225 1.504.2l1.103-1.203c.502-.802.276-.978-.1-1.63-1.203-2.131-2.958-3.259-4.563-4.913l-1.253-1.129c-.502-.426-.577-.626-1.454-.902 0-.176.025-.276.15-.401.376-.351.677.501 1.655.852.877.326 1.98.251 2.557-.276 1.128-1.027 1.228-3.459.652-5.189-.301-.928-.752-1.429-1.254-1.955-1.228-1.329-3.309-1.129-4.387.3-.627.828-.602 1.53-.602 2.658l-.376.025v.376l.652-.025c0 .15.025.301.025.451-3.434.15-8.072.677-12.259 1.655-.125-.151-.1-.176-.175-.301-.151-.226-.126-.201-.426-.226-.577-.075-.552.025-.828-.426-2.231-.15-2.131.476-1.855 1.805.1.527.05.677.025 1.228.301.201.251.251.276.677.852.251.025.527.802.928.05.401-.1.376.276.551.075.452-.125.552.226.803.2.15.25.326.426.576.852 1.254 2.732 2.683 2.983 3.184l-5.365-1.379c-.025-.175.201-1.003.226-1.328.275-2.908-.452-5.34-1.855-7.672-1.555-2.607-5.39-5.54-8.324-3.685 2.282-.226 5.115 1.178 6.895 4.162 1.328 2.231 3.359 9.225.476 11.181.1 0 .2 0 .301-.025zm-3.41 4.913c.351-.15 2.984-.852 3.435-.877v2.056c-.752-.05-1.88-.552-2.607-.853-.226-.1-.652-.2-.803-.326zm12.31-9.225c1.328 0 1.178.2 1.479.351.677.326 2.055.301 2.331.852-.05.075 0 .025-.1.075-.025.025-.1.051-.125.076-.627.3-1.555.526-2.232.376-.777-.176-1.278-.853-1.353-1.755zm9.15.15c.125-.1.075-.05.251-.125 1.002-.351 2.331-1.103 3.234-1.153.677-.025 1.93 1.479 2.657 2.08.476.402 1.128 1.104 1.504 1.705.201.326.577.627.351 1.078-.276.577-.927.1-1.078-.025-.326-.2-.652-.401-.978-.627-.451-.326-1.403-1.654-1.754-.601-.126.351-.076 2.331-.276 2.908-.075.2-.151.952-.376 1.253l-.326.201c-.426.326-1.279.15-1.429-.502-.226-1.027-.05-2.156-.201-2.632-.05-.175-.125-.225-.2-.376-.075-.125-.1-.301-.126-.451-.15-.476-.576-1.229-.501-1.755.351 0 1.354.1 1.579-.075.026-.301.051-.126-.125-.251-.1-.075-.175-.1-.301-.125-.877-.176-.351 0-1.303-.326-.602-.201-.276.075-.627-.251zm-8.223-.852c-.125-.953 1.63-2.557 2.131-2.833 1.279-.702 2.231-1.003 3.936-1.003.928 0 1.454-.1 2.131.326.2.125.326.125.526.201.778.25 1.429.827 1.856 1.253.902.903.3 1.103-.728 1.429-.651.201-1.83.527-2.557.552.051-.076 0-.025.076-.101l.526-.275c2.131-1.078-.05-2.482-2.908-1.956-.953.176-1.78.903-2.482 1.304-.2.1-.401.2-.627.326-.25.125-.326.301-.551.401-.276.15-.552.025-.727.225-.176.176-.301.276-.652.151zm-6.067-3.71c.176-.051.527-.076.652-.126.226-.125 0-.075.251-.2.175-.076.125.025.276-.101.225-.15.325-.752.727-.752.225.301.15.803-.051 1.053-.15.201-.15.176-.25.426-.025.076-.878.878-1.379.627-.276-.15-.326-.551-.201-.952zm2.257 1.529c-.026-.126-.176-.702-.226-.827-.05-.126-.376-.226-.025-.753.1-.15.15-.15.2-.3.051-.201.025-.276.176-.351 1.604-.803 10.98-1.856 12.058-1.805l-.05.426 1.429-.025.05 1.303-1.729-.275-.477.601c-2.707.05-3.71-.225-5.691 1.103-1.002.677-2.005 1.58-2.331 2.783-.15.552-.251.251-1.003.702-.1.526.1.953-.15 1.479-.126.251-.577.677-.978.552.451-.251.802-.452.877-1.179.101-1.078-.075-.952-.977-1.002-.05-.376-.126-.602-.351-.878l-.502-.702c-.677-.025-.25.652-1.454.652l.326-.175c.928-.377 0-1.254.05-2.156.527.15.276.651.778.877zm12.635-4.964c.501-.075 1.78-.276 2.231-.201v.602c-.476.125-1.73.301-2.231.176zm-4.538 23.992c.025-.878 1.003-1.103.401-1.78l-.702 1.253c-.15.276-.526 1.053-.401 1.454.125.351.151-.2.226.727.075.803.275 1.479.827 2.006.852.802 2.482.451 2.557-.401.05-.602.1-1.229-.175-1.73-.401-.727-.276-.702-.301-1.605-.126-.05-.075-.025-.151-.05-.025 0-.025 0-.05-.025l-.125-.05.125-.501-1.128.175c-.1.326-.025.451-.351.477-.225 0-.576.05-.777.025zm-5.214-17.198c.651-.1.3-.025.702-.878.175-.325.426-.727.651-.927l-.075-.025-.025-.025c-.15-.101-.125-.176-.175-.226h-.351l-.076-.251c-.376 0-.426.226-.626.376-.226.151-.652.051-.953.051-.802 0-.752.15-1.304.501-.05 1.153 1.906 2.883 2.206 1.429zm17.799 7.195c.376-.201.777-.426.727-1.003-.025-.175-.301-1.203-.376-1.329l-.201.025c-.1.226-.025.377-.175.602l-1.028 1.229c.125.1.401.125.577.2.2.1.275.201.476.276zm-28.203-12.911c-2.532-4.212-7.17-5.265-9.326-3.033 2.306-.828 5.665.476 7.671 3.81 1.304 2.181 3.284 9.05.376 10.855.201 0 .401 0 .627-.025 4.437-.827 2.131-9.15.652-11.607zm-2.583 1.203c-3.309-5.49-10.403-5.314-9.852.953.401 4.688 3.911 10.529 9.251 10.028 4.212-.777 2.005-8.649.601-10.981zm-8.423 3.811c.201-.075.451.15.577.501.125.351.075.677-.126.752-.2.076-.451-.15-.576-.501-.126-.351-.075-.677.125-.752zm4.914-.251-4.112 1.555c.151-.176.176-.527.05-.878-.125-.351-.376-.627-.601-.652l4.036-1.404c.702.226.928 1.053.627 1.379zm30.936-1.704c2.231.476 2.983-8.324-1.154-8.273.452.125.878.351 1.254.752 2.081 2.231 1.304 7.47-.075 7.521zm1.153-.276c1.654.351 2.557-7.396-1.078-7.747 2.958.802 2.206 7.245 1.078 7.747z" fill-rule="evenodd"/></g></svg>