<svg fill="none" height="90" viewBox="0 0 90 90" width="90" xmlns="http://www.w3.org/2000/svg"><path clip-rule="evenodd" d="m45 0c-24.844 0-45 20.156-45 45s20.156 45 45 45 45-20.156 45-45-20.156-45-45-45z" fill="#2b2a29" fill-rule="evenodd"/><path clip-rule="evenodd" d="m45 2.75757c-23.3147 0-42.21725 18.90253-42.21725 42.21723 0 23.3148 18.90255 42.2173 42.21725 42.2173 23.3148 0 42.2173-18.9025 42.2173-42.2173 0-23.3147-18.9025-42.21723-42.2173-42.21723z" fill="#ffec00" fill-rule="evenodd"/><path clip-rule="evenodd" d="m45 19.0779c-14.3148 0-25.922 11.6072-25.922 25.922 0 14.3147 11.6072 25.922 25.922 25.922s25.922-11.6073 25.922-25.922c0-14.3148-11.6072-25.922-25.922-25.922z" fill="#2b2a29" fill-rule="evenodd"/><path clip-rule="evenodd" d="m45 21.259c-13.1115 0-23.7159 10.6296-23.7159 23.7159 0 13.1114 10.6295 23.7159 23.7159 23.7159 13.1114 0 23.7158-10.6295 23.7158-23.7159 0-13.1114-10.6295-23.7159-23.7158-23.7159z" fill="#ffed00" fill-rule="evenodd"/><g fill="#2b2a29"><path d="m11.4317 36.0502c-2.90805-1.4791-3.55986-3.961-1.90526-7.4206l-.92758-.4764 1.40394-2.7075.9275.4763c1.8552-3.3342 4.2368-4.2618 7.1449-2.7576.6518.3259 1.2033.727 1.6295 1.1783.4262.4512.727.9025.9276 1.3788.1755.4763.2758 1.0028.2758 1.5543s-.0753 1.1031-.2257 1.6546-.3509 1.1031-.6267 1.7047l.9276.4764-1.3789 2.6824-.9275-.4763c-.3259.5766-.6519 1.078-1.0028 1.5292-.351.4262-.7521.8273-1.2034 1.1532-.4512.3259-.9275.5516-1.4289.6769-.5014.1254-1.053.1504-1.6546.0752-.6017-.0752-1.2535-.3008-1.9053-.6267zm1.4541-2.8329c1.2535.6518 2.3314.2256 3.2089-1.2785l-4.0112-2.0558c-.727 1.5794-.4512 2.6825.8273 3.3343zm4.5376-3.9109c.7019-1.5793.4262-2.6824-.8524-3.3342-1.2785-.6518-2.3315-.2256-3.1838 1.2785l4.0111 2.0557z"/><path d="m25.2451 24.5933-6.5933-10.2785 2.6824-1.7299 3.234 5.039 1.9304-8.42335.9526-.60167 6.6184 10.30362-2.7075 1.7549-3.2591-5.0641-1.9303 8.3983z"/><path d="m35.0223 8.9247-.3761-2.75766 9-1.17827.3761 2.75766-2.9583.40111 1.2285 9.32586-3.0585.4012-1.2285-9.32594z"/><path d="m47.5821 16.7717 3.3343-11.73264 3.0835.87744-1.2284 4.2618 3.6351 1.0279 1.2034-4.26185 3.0835.85237-3.3342 11.75768-3.0836-.8775 1.3287-4.713-3.61-1.0279-1.3287 4.7131z"/><path d="m60.1922 21.3843 7.9721-9.2256 5.7661 4.9888-1.8301 2.1059-3.3844-2.9582-1.1282 1.3036 3.1337 2.7075-1.83 2.1059-3.1337-2.7075-1.3789 1.6044 3.5098 3.0585-1.8301 2.1059z"/><path d="m73.2785 25.22c.7271-.3259 1.4541-.5265 2.1811-.6017s1.3788-.0251 1.9805.1504 1.1783.4262 1.7047.7772c.5265.351 1.0028.7521 1.4039 1.2284s.727 1.0028.9777 1.5794c.2257.4763.3761.9526.4764 1.454.1002.5014.1504 1.0279.1253 1.5543-.0251.5265-.1253 1.0279-.3008 1.5293-.1755.4763-.4262.9526-.8022 1.429-.3761.4512-.8273.8523-1.3538 1.2033l-1.2535-2.7827c.9276-.8775 1.1031-1.9304.5265-3.1839-.3761-.8273-.9527-1.3788-1.7549-1.6295s-1.6546-.1504-2.5822.2507c-.5515.2507-1.0028.6017-1.3788 1.0279-.376.4261-.6017.9275-.702 1.4791-.1002.5515-.025 1.103.2257 1.6546.2757.6267.6769 1.078 1.1782 1.3788.5014.3008 1.078.4011 1.7299.3008l1.2534 2.7828c-.6518.2005-1.2785.3008-1.8802.2757-.6017-.025-1.1532-.1253-1.6295-.3008-.4763-.2006-.9276-.4513-1.3538-.7772s-.7771-.7019-1.103-1.1281c-.3009-.4262-.5766-.8524-.8023-1.3538-.2757-.5766-.4512-1.1532-.5515-1.7799-.1003-.6017-.1003-1.2284 0-1.8552.1003-.6267.2758-1.2284.5515-1.7799.2758-.5515.6769-1.1031 1.2034-1.5794.5264-.5014 1.1532-.9025 1.9053-1.2535z"/><path d="m20.8579 76.5876 6.5934-10.2785 2.6824 1.7298-2.507 3.8858.2006.1253c.4763.3009.9276.5014 1.3538.5516.4261.0501.7771.0501 1.0529-.0251s.6017-.2758.9276-.6267c.3259-.326.5766-.6268.7521-.8524.1754-.2256.4011-.6017.727-1.1031.025-.0501.0501-.0752.0501-.1003.0251-.025.0251-.0501.0502-.0752.025-.025.0501-.0752.0501-.1002l2.6824 1.7298c-.025.0501-.0501.1002-.1002.1754-.2006.3009-.351.5265-.4513.6769s-.2507.351-.4262.6268c-.1755.2757-.3509.4763-.4763.6267-.1253.1504-.2758.3259-.4763.5265-.2006.2005-.3761.376-.5516.5014-.1754.1253-.3509.2507-.6016.376-.2256.1504-.4513.2507-.6769.3259s-.4763.1254-.7521.1755-.5766.0752-.8774.0752l-.1003 6.3176-.2507.4011-2.9081-1.8803.3009-5.415c-.2507-.1003-.6017-.3008-1.053-.5766l-2.5069 3.9109-2.6825-1.7298z"/><path d="m32.8161 83.482.1003-.4513 7.5961-10.6796 1.3287.2507 3.2089 12.7353-.1003.4262-2.9832-.5515-1.78-7.6212-4.3621 6.468z"/><path d="m44.9498 73.9305-.1002-.4763 3.4094-.727 3.1839 3.9359.0752-.0251 1.1281-4.8384 3.3092-.7019.1003.4763-3.234 12.6601-3.2841.702-.0752-.3259 1.0529-4.2368z"/><path d="m62.7493 80.975-5.8412-10.7298 7.6964-4.1866 1.3287 2.4568-4.9388 2.6825.7271 1.3287 1.9805-1.078c.5515-.3009 1.103-.5014 1.6546-.5766.5515-.1003 1.0529-.0752 1.4791.025.4512.1003.8774.2758 1.2534.5014.4012.2257.7271.5265.9778.9025.2507.351.4512.7521.6267 1.1532.1755.4012.2256.8524.2256 1.3037-.025.4512-.1003.9025-.2507 1.3286-.1504.4262-.4262.8524-.7771 1.2535-.3761.4011-.8524.7772-1.4039 1.078l-4.7131 2.5571zm1.4039-3.9359 1.9554-1.078c.2257-.1253.4262-.3008.5516-.5014.1253-.2005.1755-.4011.1755-.6017 0-.2005-.0752-.4011-.1505-.5766-.1002-.1755-.2256-.3259-.4011-.4512-.1755-.1254-.376-.1755-.6016-.1755-.2257 0-.4764.0501-.702.1755l-1.9554 1.078 1.1532 2.1058z"/><path clip-rule="evenodd" d="m54.9276 57.0083c.1002-.4512 1.0529-1.5292 1.454-1.8551.1504-.1254.3008-.1504.376-.3009.0251-.025.0502-.0752.0502-.1002.2256-.5265.4262-.4513.5264-.9025.1254-.5014-.1002-1.2786.7772-1.4791 1.6797-.4012.9527.8022.9276.8774-.0752.2507.0251.1755-.1254.376-.5264.7271-.8022.8273-1.5292 1.3287-.2758.2006-.8022.5014-.9777.702-.1254.1504-.1003.2256-.2257.351-.1754.2005-.376.3259-.5766.5264-.1002.1003-.4512.4513-.6768.4763zm-16.8218-9.5515-.025 3.2591c-.6769.2256-1.4541.376-2.131.5515-.376.1003-.752.2005-1.103.2758-1.5293.3509.3259.4512-2.0056.7019-.0501 0-.1504 0-.2006.0251-.2506.0501-.1002 0-.2005.0752-.1254.2005-.0752.7771-.0501 1.0529.0501.1003 5.6406 2.5571 6.2423 2.8329.5265.2507.6267.1504 1.2033-.0251.351-.1003.8273-.2256 1.1783-.351.0501-.4262.0251-.8273 0-1.2534l-1.9053.3008v-7.8468c0-.3008.6518-.8273.8022-1.2786l7.6964 2.0056c-.6769.3008-6.844 1.9304-7.4958 2.1059v.727c.702-.1003 1.6797-.4763 2.3565-.6518l4.7131-1.3287c.7772-.2006 1.7549-.702 2.3064-.2256l-9.376 3.2089v1.1782c.5265-.0501 9.2507-3.1086 10.6797-3.5849.5014-.1755.4763-.2758 1.0529-.0752.5014.1504 3.8106 1.2033 4.0362 1.1782l.0251-.9526c-.351-.2256-5.1393-1.5293-6.2424-1.8802-.2256-.0752-.7521-.1003-.8273-.351.1003-.1755.3259-.1504.5766-.2006l1.9805-.4763c1.4039-.4011 1.2285-.6518 1.6045-.8273.1253-.0501.5265-.1755.6769-.2005.351.2507.2507.1755.6769.3509.1253.2006.1253.5265.2256.7521.1003.2507.1755.4513.3259.6769.2507.4011.5766.6769 1.1532.8022.0501.9025.1253 1.6296.2256 2.4569.2006 1.4791.1755 1.078-.0501 2.3565-1.0529.3761-1.7048 1.5042-2.2061 2.1309-.326.4011-.3009.4763-.5265.9527-.2256.5515-.727 1.8301-.0501 2.2061.2506.1254.9777.2256 1.2785.1254.1003-.0251.3008-.2758.376-.351.2758-.2758.1003-.2758.2507-.5014.1254-.1254.5766-.3259.7772-.4763.7772-.5516 1.3788-1.1783 2.0557-1.8552.6268-.6017 1.2284-1.4791 1.5042-2.4067.1003-.351.2005-.727.3008-1.0278.3009 0 .351.025.5265.1253-.0251.6017-.351.9025-.6518 1.3538-.4262.6769-.2758.8523-.2257 1.6796.351.0752 1.0028 0 1.4039 0 .7772 0 1.9304.2507 2.6324-.0752.4512-.2256.4261-.5515.4011-1.0529-.2256-.1253-.6518-.351-.9276-.4262-.3008-.0752-.3008 0-.5265-.1504-1.0027-.6518-.6016.8022-2.1058.376-.0752-.3008-.0752-.6267.0501-.8774.1254-.2507.2006-.4512.3009-.7019 1.0529-.0752 2.0557.6267 3.0585.7771.5515.1003.6768 0 1.0278-.2507.8273-.5515 1.5293-1.0529 2.156-1.7549.2006-.2256.1253-.8022.1253-1.1782-.2757.0501-1.2284.7771-1.4791.9777-.2507.1755-.4512.3259-.727.5515-.1755.1254-.1755.1254-.3259.3009-.1003.1253-.2005.1754-.4262.1504-.4261-.0752-3.7855-.9276-3.961-1.0529 0-.0251 0-.0502-.025-.0502 0 .0502-.0251-.4011.1504-1.1281.1003-.4513.1755-.727.2005-1.2284.2758.0501.9025.3509 1.3037.4512.5014.1254.9777.2256 1.5041.2006l1.1031-1.2034c.5014-.8022.2758-.9777-.1003-1.6295-1.2033-2.1309-2.9582-3.259-4.5627-4.9136l-1.2534-1.1282c-.5014-.4262-.5766-.6267-1.4541-.9025 0-.1755.0251-.2757.1504-.4011.3761-.351.6769.5014 1.6546.8524.8775.3259 1.9805.2507 2.5571-.2758 1.1282-1.0278 1.2285-3.4596.6519-5.1894-.3009-.9276-.7521-1.429-1.2535-1.9554-1.2284-1.3287-3.3092-1.1282-4.3872.3008-.6268.8273-.6017 1.5292-.6017 2.6574l-.376.025v.3761l.6518-.0251c0 .1504.0251.3009.0251.4513-3.4346.1504-8.0725.6769-12.2591 1.6546-.1254-.1504-.1003-.1755-.1755-.3009-.1504-.2256-.1253-.2005-.4262-.2256-.5766-.0752-.5515.0251-.8273-.4262-2.2312-.1504-2.1309.4763-1.8551 1.805.1003.5265.0501.6769.025 1.2285.3009.2005.2507.2506.2758.6768.8524.2507.0251.5265.8022.9276.0502.4011-.1002.3761.2758.5515.0752.4513-.1253.5516.2256.8023.2006.1504.2507.3259.4262.5766.8524 1.2535 2.7326 2.6824 2.9833 3.1838l-5.3649-1.3788c-.0251-.1755.2006-1.0028.2256-1.3287.2758-2.9081-.4512-5.3398-1.8551-7.6713-1.5543-2.6073-5.39-5.5404-8.3231-3.6853 2.2813-.2256 5.1142 1.1783 6.8941 4.1616 1.3287 2.2312 3.3593 9.2256.4763 11.1811.1003 0 .2006 0 .3009-.0251zm-3.4094 4.9137c.3509-.1505 2.9832-.8524 3.4345-.8775v2.0557c-.7521-.0501-1.8802-.5515-2.6072-.8523-.2257-.1003-.6519-.2006-.8023-.3259zm12.3092-9.2257c1.3286 0 1.1782.2006 1.4791.351.6768.3259 2.0557.3008 2.3314.8524-.0501.0752 0 .025-.1002.0752-.0251.025-.1003.0501-.1254.0752-.6267.3008-1.5543.5265-2.2312.376-.7771-.1755-1.2785-.8523-1.3537-1.7548zm9.1504.1504c.1253-.1002.0752-.0501.2507-.1253 1.0028-.351 2.3314-1.1031 3.2339-1.1532.6769-.0251 1.9304 1.4791 2.6574 2.0808.4764.4011 1.1282 1.103 1.5042 1.7047.2006.3259.5766.6268.351 1.078-.2758.5766-.9276.1003-1.078-.0251-.3259-.2005-.6518-.4011-.9777-.6267-.4513-.3259-1.4039-1.6546-1.7549-.6017-.1253.351-.0752 2.3315-.2758 2.9081-.0752.2006-.1504.9526-.376 1.2535l-.3259.2005c-.4262.3259-1.2786.1505-1.429-.5014-.2256-1.0278-.0501-2.1559-.2005-2.6323-.0502-.1755-.1254-.2256-.2006-.376-.0752-.1254-.1003-.3008-.1253-.4513-.1505-.4763-.5766-1.2284-.5014-1.7548.3509 0 1.3537.1002 1.5793-.0752.0251-.3009.0502-.1254-.1253-.2507-.1003-.0753-.1755-.1003-.3008-.1254-.8775-.1755-.351 0-1.3037-.3259-.6016-.2006-.2757.0752-.6267-.2507zm-8.2229-.8523c-.1253-.9527 1.6296-2.5571 2.1309-2.8329 1.2786-.7019 2.2312-1.0028 3.936-1.0028.9276 0 1.454-.1003 2.1309.3259.2006.1254.3259.1254.5265.2006.7771.2507 1.4289.8273 1.8551 1.2535.9025.9025.3009 1.103-.727 1.4289-.6518.2006-1.8301.5265-2.5571.5516.0501-.0752 0-.0251.0752-.1003l.5265-.2758c2.1309-1.078-.0502-2.4819-2.9081-1.9554-.9527.1755-1.78.9025-2.4819 1.3036-.2006.1003-.4011.2006-.6267.3259-.2507.1254-.326.3009-.5516.4011-.2757.1505-.5515.0251-.727.2257-.1755.1754-.3008.2757-.6518.1504zm-6.0668-3.7103c.1755-.0502.5264-.0752.6518-.1254.2256-.1253 0-.0752.2507-.2005.1755-.0752.1253.025.2757-.1003.2257-.1504.326-.7521.7271-.7521.2256.3008.1504.8022-.0502 1.0529-.1504.2006-.1504.1755-.2507.4262-.025.0752-.8774.8774-1.3788.6267-.2758-.1504-.3259-.5515-.2006-.9526zm2.2562 1.5292c-.025-.1253-.1754-.7019-.2256-.8273-.0501-.1253-.376-.2256-.0251-.7521.1003-.1504.1505-.1504.2006-.3008.0501-.2006.0251-.2758.1755-.351 1.6044-.8022 10.9805-1.8551 12.0585-1.805l-.0501.4262 1.4289-.0251.0502 1.3036-1.7298-.2757-.4764.6016c-2.7075.0502-3.7103-.2256-5.6908 1.1031-1.0028.6769-2.0056 1.5794-2.3315 2.7827-.1504.5516-.2507.2507-1.0027.702-.1003.5265.1002.9526-.1505 1.4791-.1253.2507-.5766.6769-.9777.5515.4513-.2507.8023-.4512.8775-1.1782.1002-1.078-.0752-.9527-.9778-1.0028-.0501-.3761-.1253-.6017-.3509-.8775l-.5014-.7019c-.6769-.0251-.2507.6518-1.4541.6518l.3259-.1755c.9276-.376 0-1.2535.0502-2.156.5264.1504.2758.6518.7771.8775zm12.6351-4.9638c.5014-.0752 1.78-.2757 2.2312-.2005v.6016c-.4763.1254-1.7298.3009-2.2312.1755zm-4.5376 23.9917c.0251-.8775 1.0028-1.1031.4012-1.78l-.702 1.2535c-.1504.2758-.5265 1.0529-.4011 1.4541.1253.3509.1504-.2006.2256.727.0752.8022.2758 1.4791.8273 2.0055.8524.8023 2.4819.4513 2.5571-.4011.0502-.6016.1003-1.2284-.1755-1.7298-.4011-.727-.2757-.7019-.3008-1.6044-.1254-.0502-.0752-.0251-.1504-.0502-.0251 0-.0251 0-.0502-.025l-.1253-.0502.1253-.5014-1.1281.1755c-.1003.3259-.0251.4513-.351.4763-.2256 0-.5766.0502-.7771.0251zm-5.2144-17.1978c.6518-.1003.3008-.0251.7019-.8774.1755-.3259.4262-.7271.6518-.9276l-.0752-.0251-.0251-.0251c-.1504-.1002-.1253-.1754-.1755-.2256h-.3509l-.0752-.2507c-.3761 0-.4262.2257-.6268.3761-.2256.1504-.6518.0501-.9526.0501-.8023 0-.7521.1504-1.3036.5014-.0502 1.1532 1.9052 2.883 2.2061 1.429zm17.7994 7.195c.376-.2006.7772-.4262.727-1.0028-.0251-.1755-.3008-1.2033-.376-1.3287l-.2006.0251c-.1003.2256-.0251.376-.1755.6017l-1.0278 1.2284c.1253.1002.4011.1253.5766.2005.2005.1003.2757.2006.4763.2758zm-28.2033-12.9109c-2.5321-4.2117-7.17-5.2646-9.326-3.0334 2.3065-.8273 5.6658.4763 7.6714 3.8106 1.3036 2.181 3.2841 9.0501.376 10.8551.2006 0 .4011 0 .6267-.025 4.4374-.8273 2.131-9.1504.6519-11.6073zm-2.5822 1.2034c-3.3092-5.4903-10.4039-5.3148-9.8524.9526.4011 4.688 3.9109 10.5293 9.2507 10.0279 4.2117-.7772 2.0056-8.6491.6017-10.9805zm-8.4234 3.8106c.2005-.0753.4512.1504.5766.5013.1253.351.0752.6769-.1254.7521-.2005.0752-.4512-.1504-.5766-.5014-.1253-.3509-.0752-.6768.1254-.752zm4.9136-.2507-4.1114 1.5543c.1504-.1755.1755-.5265.0502-.8775-.1254-.3509-.3761-.6267-.6017-.6518l4.0362-1.4039c.7019.2257.9276 1.053.6267 1.3789zm30.936-1.7048c2.2312.4763 2.9833-8.3231-1.1532-8.273.4512.1254.8774.351 1.2534.7521 2.0808 2.2312 1.3037 7.4708-.0752 7.5209zm1.1532-.2757c1.6546.3509 2.5571-7.3956-1.078-7.7466 2.9582.8023 2.2061 7.2452 1.078 7.7466z" fill-rule="evenodd"/></g></svg>