<svg width="90" height="90" viewBox="0 0 90 90" fill="none" xmlns="http://www.w3.org/2000/svg">
<path fill-rule="evenodd" clip-rule="evenodd" d="M45 0C20.156 0 0 20.156 0 45C0 69.844 20.156 90 45 90C69.844 90 90 69.844 90 45C90 20.156 69.844 0 45 0Z" fill="#2B2A29"/>
<path fill-rule="evenodd" clip-rule="evenodd" d="M45 2.75757C21.6853 2.75757 2.78275 21.6601 2.78275 44.9748C2.78275 68.2896 21.6853 87.1921 45 87.1921C68.3148 87.1921 87.2173 68.2896 87.2173 44.9748C87.2173 21.6601 68.3148 2.75757 45 2.75757Z" fill="#FFEC00"/>
<path fill-rule="evenodd" clip-rule="evenodd" d="M45 19.0779C30.6852 19.0779 19.078 30.6851 19.078 44.9999C19.078 59.3146 30.6852 70.9219 45 70.9219C59.3148 70.9219 70.922 59.3146 70.922 44.9999C70.922 30.6851 59.3148 19.0779 45 19.0779Z" fill="#2B2A29"/>
<path fill-rule="evenodd" clip-rule="evenodd" d="M45 21.259C31.8885 21.259 21.2841 31.8886 21.2841 44.9749C21.2841 58.0863 31.9136 68.6908 45 68.6908C58.1114 68.6908 68.7158 58.0613 68.7158 44.9749C68.7158 31.8635 58.0863 21.259 45 21.259Z" fill="#FFED00"/>
<path d="M11.4317 36.0502C8.52365 34.5711 7.87184 32.0892 9.52644 28.6296L8.59886 28.1532L10.0028 25.4457L10.9303 25.922C12.7855 22.5878 15.1671 21.6602 18.0752 23.1644C18.727 23.4903 19.2785 23.8914 19.7047 24.3427C20.1309 24.7939 20.4317 25.2452 20.6323 25.7215C20.8078 26.1978 20.9081 26.7243 20.9081 27.2758C20.9081 27.8273 20.8328 28.3789 20.6824 28.9304C20.532 29.4819 20.3315 30.0335 20.0557 30.6351L20.9833 31.1115L19.6044 33.7939L18.6769 33.3176C18.351 33.8942 18.025 34.3956 17.6741 34.8468C17.3231 35.273 16.922 35.6741 16.4707 36C16.0195 36.3259 15.5432 36.5516 15.0418 36.6769C14.5404 36.8023 13.9888 36.8273 13.3872 36.7521C12.7855 36.6769 12.1337 36.4513 11.4819 36.1254L11.4317 36.0502ZM12.8858 33.2173C14.1393 33.8691 15.2172 33.4429 16.0947 31.9388L12.0835 29.883C11.3565 31.4624 11.6323 32.5655 12.9108 33.2173H12.8858ZM17.4234 29.3064C18.1253 27.7271 17.8496 26.624 16.571 25.9722C15.2925 25.3204 14.2395 25.7466 13.3872 27.2507L17.3983 29.3064H17.4234Z" fill="#2B2A29"/>
<path d="M25.2451 24.5933L18.6518 14.3148L21.3342 12.5849L24.5682 17.6239L26.4986 9.20055L27.4512 8.59888L34.0696 18.9025L31.3621 20.6574L28.103 15.5933L26.1727 23.9916L25.2451 24.5933Z" fill="#2B2A29"/>
<path d="M35.0223 8.9247L34.6462 6.16704L43.6462 4.98877L44.0223 7.74643L41.064 8.14754L42.2925 17.4734L39.234 17.8746L38.0055 8.54866L35.0223 8.9247Z" fill="#2B2A29"/>
<path d="M47.5821 16.7717L50.9164 5.03906L53.9999 5.9165L52.7715 10.1783L56.4066 11.2062L57.61 6.94435L60.6935 7.79672L57.3593 19.5544L54.2757 18.6769L55.6044 13.9639L51.9944 12.936L50.6657 17.6491L47.5821 16.7717Z" fill="#2B2A29"/>
<path d="M60.1922 21.3843L68.1643 12.1587L73.9304 17.1475L72.1003 19.2534L68.7159 16.2952L67.5877 17.5988L70.7214 20.3063L68.8914 22.4122L65.7577 19.7047L64.3788 21.3091L67.8886 24.3676L66.0585 26.4735L60.1922 21.3843Z" fill="#2B2A29"/>
<path d="M73.2785 25.22C74.0056 24.8941 74.7326 24.6935 75.4596 24.6183C76.1866 24.5431 76.8384 24.5932 77.4401 24.7687C78.0418 24.9442 78.6184 25.1949 79.1448 25.5459C79.6713 25.8969 80.1476 26.298 80.5487 26.7743C80.9498 27.2506 81.2757 27.7771 81.5264 28.3537C81.7521 28.83 81.9025 29.3063 82.0028 29.8077C82.103 30.3091 82.1532 30.8356 82.1281 31.362C82.103 31.8885 82.0028 32.3899 81.8273 32.8913C81.6518 33.3676 81.4011 33.8439 81.0251 34.3203C80.649 34.7715 80.1978 35.1726 79.6713 35.5236L78.4178 32.7409C79.3454 31.8634 79.5209 30.8105 78.9443 29.557C78.5682 28.7297 77.9916 28.1782 77.1894 27.9275C76.3872 27.6768 75.5348 27.7771 74.6072 28.1782C74.0557 28.4289 73.6044 28.7799 73.2284 29.2061C72.8524 29.6322 72.6267 30.1336 72.5264 30.6852C72.4262 31.2367 72.5014 31.7882 72.7521 32.3398C73.0278 32.9665 73.429 33.4178 73.9303 33.7186C74.4317 34.0194 75.0083 34.1197 75.6602 34.0194L76.9136 36.8022C76.2618 37.0027 75.6351 37.103 75.0334 37.0779C74.4317 37.0529 73.8802 36.9526 73.4039 36.7771C72.9276 36.5765 72.4763 36.3258 72.0501 35.9999C71.6239 35.674 71.273 35.298 70.9471 34.8718C70.6462 34.4456 70.3705 34.0194 70.1448 33.518C69.8691 32.9414 69.6936 32.3648 69.5933 31.7381C69.493 31.1364 69.493 30.5097 69.5933 29.8829C69.6936 29.2562 69.8691 28.6545 70.1448 28.103C70.4206 27.5515 70.8217 26.9999 71.3482 26.5236C71.8746 26.0222 72.5014 25.6211 73.2535 25.2701L73.2785 25.22Z" fill="#2B2A29"/>
<path d="M20.8579 76.5876L27.4513 66.3091L30.1337 68.0389L27.6267 71.9247L27.8273 72.05C28.3036 72.3509 28.7549 72.5514 29.1811 72.6016C29.6072 72.6517 29.9582 72.6517 30.234 72.5765C30.5098 72.5013 30.8357 72.3007 31.1616 71.9498C31.4875 71.6238 31.7382 71.323 31.9137 71.0974C32.0891 70.8718 32.3148 70.4957 32.6407 69.9943C32.6657 69.9442 32.6908 69.9191 32.6908 69.894C32.7159 69.869 32.7159 69.8439 32.741 69.8188C32.766 69.7938 32.7911 69.7436 32.7911 69.7186L35.4735 71.4484C35.4485 71.4985 35.4234 71.5486 35.3733 71.6238C35.1727 71.9247 35.0223 72.1503 34.922 72.3007C34.8217 72.4511 34.6713 72.6517 34.4958 72.9275C34.3203 73.2032 34.1449 73.4038 34.0195 73.5542C33.8942 73.7046 33.7437 73.8801 33.5432 74.0807C33.3426 74.2812 33.1671 74.4567 32.9916 74.5821C32.8162 74.7074 32.6407 74.8328 32.39 74.9581C32.1644 75.1085 31.9387 75.2088 31.7131 75.284C31.4875 75.3592 31.2368 75.4094 30.961 75.4595C30.6852 75.5096 30.3844 75.5347 30.0836 75.5347L29.9833 81.8523L29.7326 82.2534L26.8245 80.3731L27.1254 74.9581C26.8747 74.8578 26.5237 74.6573 26.0724 74.3815L23.5655 78.2924L20.883 76.5626L20.8579 76.5876Z" fill="#2B2A29"/>
<path d="M32.8161 83.482L32.9164 83.0307L40.5125 72.3511L41.8412 72.6018L45.0501 85.3371L44.9498 85.7633L41.9666 85.2118L40.1866 77.5906L35.8245 84.0586L32.8161 83.482Z" fill="#2B2A29"/>
<path d="M44.9498 73.9305L44.8496 73.4542L48.259 72.7272L51.4429 76.6631L51.5181 76.638L52.6462 71.7996L55.9554 71.0977L56.0557 71.574L52.8217 84.2341L49.5376 84.9361L49.4624 84.6102L50.5153 80.3734L44.9498 73.9305Z" fill="#2B2A29"/>
<path d="M62.7493 80.975L56.9081 70.2452L64.6045 66.0586L65.9332 68.5154L60.9944 71.1979L61.7215 72.5266L63.702 71.4486C64.2535 71.1477 64.805 70.9472 65.3566 70.872C65.9081 70.7717 66.4095 70.7968 66.8357 70.897C67.2869 70.9973 67.7131 71.1728 68.0891 71.3984C68.4903 71.6241 68.8162 71.9249 69.0669 72.3009C69.3176 72.6519 69.5181 73.053 69.6936 73.4541C69.8691 73.8553 69.9192 74.3065 69.9192 74.7578C69.8942 75.209 69.8189 75.6603 69.6685 76.0864C69.5181 76.5126 69.2423 76.9388 68.8914 77.3399C68.5153 77.741 68.039 78.1171 67.4875 78.4179L62.7744 80.975H62.7493ZM64.1532 77.0391L66.1086 75.9611C66.3343 75.8358 66.5348 75.6603 66.6602 75.4597C66.7855 75.2592 66.8357 75.0586 66.8357 74.858C66.8357 74.6575 66.7605 74.4569 66.6852 74.2814C66.585 74.1059 66.4596 73.9555 66.2841 73.8302C66.1086 73.7048 65.9081 73.6547 65.6825 73.6547C65.4568 73.6547 65.2061 73.7048 64.9805 73.8302L63.0251 74.9082L64.1783 77.014L64.1532 77.0391Z" fill="#2B2A29"/>
<path fill-rule="evenodd" clip-rule="evenodd" d="M54.9276 57.0083C55.0278 56.5571 55.9805 55.4791 56.3816 55.1532C56.532 55.0278 56.6824 55.0028 56.7576 54.8523C56.7827 54.8273 56.8078 54.7771 56.8078 54.7521C57.0334 54.2256 57.234 54.3008 57.3342 53.8496C57.4596 53.3482 57.234 52.571 58.1114 52.3705C59.7911 51.9693 59.0641 53.1727 59.039 53.2479C58.9638 53.4986 59.0641 53.4234 58.9136 53.6239C58.3872 54.351 58.1114 54.4512 57.3844 54.9526C57.1086 55.1532 56.5822 55.454 56.4067 55.6546C56.2813 55.805 56.3064 55.8802 56.181 56.0056C56.0056 56.2061 55.805 56.3315 55.6044 56.532C55.5042 56.6323 55.1532 56.9833 54.9276 57.0083ZM38.1058 47.4568L38.0808 50.7159C37.4039 50.9415 36.6267 51.0919 35.9498 51.2674C35.5738 51.3677 35.1978 51.4679 34.8468 51.5432C33.3175 51.8941 35.1727 51.9944 32.8412 52.2451C32.7911 52.2451 32.6908 52.2451 32.6406 52.2702C32.39 52.3203 32.5404 52.2702 32.4401 52.3454C32.3147 52.5459 32.3649 53.1225 32.39 53.3983C32.4401 53.4986 38.0306 55.9554 38.6323 56.2312C39.1588 56.4819 39.259 56.3816 39.8356 56.2061C40.1866 56.1058 40.6629 55.9805 41.0139 55.8551C41.064 55.4289 41.039 55.0278 41.0139 54.6017L39.1086 54.9025V47.0557C39.1086 46.7549 39.7604 46.2284 39.9108 45.7771L47.6072 47.7827C46.9303 48.0835 40.7632 49.7131 40.1114 49.8886V50.6156C40.8134 50.5153 41.7911 50.1393 42.4679 49.9638L47.181 48.6351C47.9582 48.4345 48.9359 47.9331 49.4874 48.4095L40.1114 51.6184V52.7966C40.6379 52.7465 49.3621 49.688 50.7911 49.2117C51.2925 49.0362 51.2674 48.9359 51.844 49.1365C52.3454 49.2869 55.6546 50.3398 55.8802 50.3147L55.9053 49.3621C55.5543 49.1365 50.766 47.8328 49.6629 47.4819C49.4373 47.4067 48.9108 47.3816 48.8356 47.1309C48.9359 46.9554 49.1615 46.9805 49.4122 46.9303L51.3927 46.454C52.7966 46.0529 52.6212 45.8022 52.9972 45.6267C53.1225 45.5766 53.5237 45.4512 53.6741 45.4262C54.0251 45.6769 53.9248 45.6017 54.351 45.7771C54.4763 45.9777 54.4763 46.3036 54.5766 46.5292C54.6769 46.7799 54.7521 46.9805 54.9025 47.2061C55.1532 47.6072 55.4791 47.883 56.0557 48.0083C56.1058 48.9108 56.181 49.6379 56.2813 50.4652C56.4819 51.9443 56.4568 51.5432 56.2312 52.8217C55.1783 53.1978 54.5264 54.3259 54.0251 54.9526C53.6991 55.3537 53.7242 55.4289 53.4986 55.9053C53.273 56.4568 52.7716 57.7354 53.4485 58.1114C53.6991 58.2368 54.4262 58.337 54.727 58.2368C54.8273 58.2117 55.0278 57.961 55.103 57.8858C55.3788 57.61 55.2033 57.61 55.3537 57.3844C55.4791 57.259 55.9303 57.0585 56.1309 56.9081C56.9081 56.3565 57.5097 55.7298 58.1866 55.0529C58.8134 54.4512 59.415 53.5738 59.6908 52.6462C59.7911 52.2952 59.8913 51.9192 59.9916 51.6184C60.2925 51.6184 60.3426 51.6434 60.5181 51.7437C60.493 52.3454 60.1671 52.6462 59.8663 53.0975C59.4401 53.7744 59.5905 53.9498 59.6406 54.7771C59.9916 54.8523 60.6434 54.7771 61.0445 54.7771C61.8217 54.7771 62.9749 55.0278 63.6769 54.7019C64.1281 54.4763 64.103 54.1504 64.078 53.649C63.8524 53.5237 63.4262 53.298 63.1504 53.2228C62.8496 53.1476 62.8496 53.2228 62.6239 53.0724C61.6212 52.4206 62.0223 53.8746 60.5181 53.4484C60.4429 53.1476 60.4429 52.8217 60.5682 52.571C60.6936 52.3203 60.7688 52.1198 60.8691 51.8691C61.922 51.7939 62.9248 52.4958 63.9276 52.6462C64.4791 52.7465 64.6044 52.6462 64.9554 52.3955C65.7827 51.844 66.4847 51.3426 67.1114 50.6406C67.312 50.415 67.2367 49.8384 67.2367 49.4624C66.961 49.5125 66.0083 50.2395 65.7576 50.4401C65.5069 50.6156 65.3064 50.766 65.0306 50.9916C64.8551 51.117 64.8551 51.117 64.7047 51.2925C64.6044 51.4178 64.5042 51.4679 64.2785 51.4429C63.8524 51.3677 60.493 50.5153 60.3175 50.39C60.3175 50.3649 60.3175 50.3398 60.2925 50.3398C60.2925 50.39 60.2674 49.9387 60.4429 49.2117C60.5432 48.7604 60.6184 48.4847 60.6434 47.9833C60.9192 48.0334 61.5459 48.3342 61.9471 48.4345C62.4485 48.5599 62.9248 48.6601 63.4512 48.6351L64.5543 47.4317C65.0557 46.6295 64.8301 46.454 64.454 45.8022C63.2507 43.6713 61.4958 42.5432 59.8913 40.8886L58.6379 39.7604C58.1365 39.3342 58.0613 39.1337 57.1838 38.8579C57.1838 38.6824 57.2089 38.5822 57.3342 38.4568C57.7103 38.1058 58.0111 38.9582 58.9888 39.3092C59.8663 39.6351 60.9693 39.5599 61.5459 39.0334C62.6741 38.0056 62.7744 35.5738 62.1978 33.844C61.8969 32.9164 61.4457 32.415 60.9443 31.8886C59.7159 30.5599 57.6351 30.7604 56.5571 32.1894C55.9303 33.0167 55.9554 33.7186 55.9554 34.8468L55.5794 34.8718V35.2479L56.2312 35.2228C56.2312 35.3732 56.2563 35.5237 56.2563 35.6741C52.8217 35.8245 48.1838 36.351 43.9972 37.3287C43.8718 37.1783 43.8969 37.1532 43.8217 37.0278C43.6713 36.8022 43.6964 36.8273 43.3955 36.8022C42.8189 36.727 42.844 36.8273 42.5682 36.376C40.337 36.2256 40.4373 36.8523 40.7131 38.181C40.8134 38.7075 40.7632 38.8579 40.7381 39.4095C41.039 39.61 40.9888 39.6601 41.0139 40.0863C41.8663 40.337 41.039 40.6128 41.8161 41.0139C41.8663 41.415 41.7159 41.39 42.0919 41.5654C42.1671 42.0167 41.9666 42.117 42.3175 42.3677C42.5181 42.5181 42.5682 42.6936 42.7437 42.9443C43.5961 44.1978 45.4763 45.6267 45.727 46.1281L40.3621 44.7493C40.337 44.5738 40.5627 43.7465 40.5877 43.4206C40.8635 40.5125 40.1365 38.0808 38.7326 35.7493C37.1783 33.142 33.3426 30.2089 30.4095 32.064C32.6908 31.8384 35.5237 33.2423 37.3036 36.2256C38.6323 38.4568 40.6629 45.4512 37.7799 47.4067C37.8802 47.4067 37.9805 47.4067 38.0808 47.3816L38.1058 47.4568ZM34.6964 52.3705C35.0473 52.22 37.6796 51.5181 38.1309 51.493V53.5487C37.3788 53.4986 36.2507 52.9972 35.5237 52.6964C35.298 52.5961 34.8718 52.4958 34.7214 52.3705H34.6964ZM47.0056 43.1448C48.3342 43.1448 48.1838 43.3454 48.4847 43.4958C49.1615 43.8217 50.5404 43.7966 50.8161 44.3482C50.766 44.4234 50.8161 44.3732 50.7159 44.4234C50.6908 44.4484 50.6156 44.4735 50.5905 44.4986C49.9638 44.7994 49.0362 45.0251 48.3593 44.8746C47.5822 44.6991 47.0808 44.0223 47.0056 43.1198V43.1448ZM56.156 43.2952C56.2813 43.195 56.2312 43.2451 56.4067 43.1699C57.4095 42.8189 58.7381 42.0668 59.6406 42.0167C60.3175 41.9916 61.571 43.4958 62.298 44.0975C62.7744 44.4986 63.4262 45.2005 63.8022 45.8022C64.0028 46.1281 64.3788 46.429 64.1532 46.8802C63.8774 47.4568 63.2256 46.9805 63.0752 46.8551C62.7493 46.6546 62.4234 46.454 62.0975 46.2284C61.6462 45.9025 60.6936 44.5738 60.3426 45.6267C60.2173 45.9777 60.2674 47.9582 60.0668 48.5348C59.9916 48.7354 59.9164 49.4874 59.6908 49.7883L59.3649 49.9888C58.9387 50.3147 58.0863 50.1393 57.9359 49.4874C57.7103 48.4596 57.8858 47.3315 57.7354 46.8551C57.6852 46.6796 57.61 46.6295 57.5348 46.4791C57.4596 46.3537 57.4345 46.1783 57.4095 46.0278C57.259 45.5515 56.8329 44.7994 56.9081 44.273C57.259 44.273 58.2618 44.3732 58.4874 44.1978C58.5125 43.8969 58.5376 44.0724 58.3621 43.9471C58.2618 43.8718 58.1866 43.8468 58.0613 43.8217C57.1838 43.6462 57.7103 43.8217 56.7576 43.4958C56.156 43.2952 56.4819 43.571 56.1309 43.2451L56.156 43.2952ZM47.9331 42.4429C47.8078 41.4902 49.5627 39.8858 50.064 39.61C51.3426 38.9081 52.2952 38.6072 54 38.6072C54.9276 38.6072 55.454 38.5069 56.1309 38.9331C56.3315 39.0585 56.4568 39.0585 56.6574 39.1337C57.4345 39.3844 58.0863 39.961 58.5125 40.3872C59.415 41.2897 58.8134 41.4902 57.7855 41.8161C57.1337 42.0167 55.9554 42.3426 55.2284 42.3677C55.2785 42.2925 55.2284 42.3426 55.3036 42.2674L55.8301 41.9916C57.961 40.9136 55.7799 39.5097 52.922 40.0362C51.9693 40.2117 51.142 40.9387 50.4401 41.3398C50.2395 41.4401 50.039 41.5404 49.8134 41.6657C49.5627 41.7911 49.4874 41.9666 49.2618 42.0668C48.9861 42.2173 48.7103 42.0919 48.5348 42.2925C48.3593 42.4679 48.234 42.5682 47.883 42.4429H47.9331ZM41.8663 38.7326C42.0418 38.6824 42.3927 38.6574 42.5181 38.6072C42.7437 38.4819 42.5181 38.532 42.7688 38.4067C42.9443 38.3315 42.8941 38.4317 43.0445 38.3064C43.2702 38.156 43.3705 37.5543 43.7716 37.5543C43.9972 37.8551 43.922 38.3565 43.7214 38.6072C43.571 38.8078 43.571 38.7827 43.4707 39.0334C43.4457 39.1086 42.5933 39.9108 42.0919 39.6601C41.8161 39.5097 41.766 39.1086 41.8913 38.7075L41.8663 38.7326ZM44.1225 40.2618C44.0975 40.1365 43.9471 39.5599 43.8969 39.4345C43.8468 39.3092 43.5209 39.2089 43.8718 38.6824C43.9721 38.532 44.0223 38.532 44.0724 38.3816C44.1225 38.181 44.0975 38.1058 44.2479 38.0306C45.8523 37.2284 55.2284 36.1755 56.3064 36.2256L56.2563 36.6518L57.6852 36.6267L57.7354 37.9303L56.0056 37.6546L55.5292 38.2562C52.8217 38.3064 51.8189 38.0306 49.8384 39.3593C48.8356 40.0362 47.8328 40.9387 47.5069 42.142C47.3565 42.6936 47.2562 42.3927 46.5042 42.844C46.4039 43.3705 46.6044 43.7966 46.3537 44.3231C46.2284 44.5738 45.7771 45 45.376 44.8746C45.8273 44.6239 46.1783 44.4234 46.2535 43.6964C46.3537 42.6184 46.1783 42.7437 45.2757 42.6936C45.2256 42.3175 45.1504 42.0919 44.9248 41.8161L44.4234 41.1142C43.7465 41.0891 44.1727 41.766 42.9693 41.766L43.2952 41.5905C44.2228 41.2145 43.2952 40.337 43.3454 39.4345C43.8718 39.5849 43.6212 40.0863 44.1225 40.312V40.2618ZM56.7576 35.298C57.259 35.2228 58.5376 35.0223 58.9888 35.0975V35.6991C58.5125 35.8245 57.259 36 56.7576 35.8746V35.298ZM52.22 59.2897C52.2451 58.4122 53.2228 58.1866 52.6212 57.5097L51.9192 58.7632C51.7688 59.039 51.3927 59.8161 51.5181 60.2173C51.6434 60.5682 51.6685 60.0167 51.7437 60.9443C51.8189 61.7465 52.0195 62.4234 52.571 62.9498C53.4234 63.7521 55.0529 63.4011 55.1281 62.5487C55.1783 61.9471 55.2284 61.3203 54.9526 60.8189C54.5515 60.0919 54.6769 60.117 54.6518 59.2145C54.5264 59.1643 54.5766 59.1894 54.5014 59.1643C54.4763 59.1643 54.4763 59.1643 54.4512 59.1393L54.3259 59.0891L54.4512 58.5877L53.3231 58.7632C53.2228 59.0891 53.298 59.2145 52.9721 59.2395C52.7465 59.2395 52.3955 59.2897 52.195 59.2646L52.22 59.2897ZM47.0056 42.0919C47.6574 41.9916 47.3064 42.0668 47.7075 41.2145C47.883 40.8886 48.1337 40.4874 48.3593 40.2869L48.2841 40.2618L48.259 40.2367C48.1086 40.1365 48.1337 40.0613 48.0835 40.0111H47.7326L47.6574 39.7604C47.2813 39.7604 47.2312 39.9861 47.0306 40.1365C46.805 40.2869 46.3788 40.1866 46.078 40.1866C45.2757 40.1866 45.3259 40.337 44.7744 40.688C44.7242 41.8412 46.6796 43.571 46.9805 42.117L47.0056 42.0919ZM64.805 49.2869C65.181 49.0863 65.5822 48.8607 65.532 48.2841C65.5069 48.1086 65.2312 47.0808 65.156 46.9554L64.9554 46.9805C64.8551 47.2061 64.9303 47.3565 64.7799 47.5822L63.7521 48.8106C63.8774 48.9108 64.1532 48.9359 64.3287 49.0111C64.5292 49.1114 64.6044 49.2117 64.805 49.2869ZM36.6017 36.376C34.0696 32.1643 29.4317 31.1114 27.2757 33.3426C29.5822 32.5153 32.9415 33.8189 34.9471 37.1532C36.2507 39.3342 38.2312 46.2033 35.3231 48.0083C35.5237 48.0083 35.7242 48.0083 35.9498 47.9833C40.3872 47.156 38.0808 38.8329 36.6017 36.376ZM34.0195 37.5794C30.7103 32.0891 23.6156 32.2646 24.1671 38.532C24.5682 43.22 28.078 49.0613 33.4178 48.5599C37.6295 47.7827 35.4234 39.9108 34.0195 37.5794ZM25.5961 41.39C25.7966 41.3147 26.0473 41.5404 26.1727 41.8913C26.298 42.2423 26.2479 42.5682 26.0473 42.6434C25.8468 42.7186 25.5961 42.493 25.4707 42.142C25.3454 41.7911 25.3955 41.4652 25.5961 41.39ZM30.5097 41.1393L26.3983 42.6936C26.5487 42.5181 26.5738 42.1671 26.4485 41.8161C26.3231 41.4652 26.0724 41.1894 25.8468 41.1643L29.883 39.7604C30.5849 39.9861 30.8106 40.8134 30.5097 41.1393ZM61.4457 39.4345C63.6769 39.9108 64.429 31.1114 60.2925 31.1615C60.7437 31.2869 61.1699 31.5125 61.5459 31.9136C63.6267 34.1448 62.8496 39.3844 61.4707 39.4345H61.4457ZM62.5989 39.1588C64.2535 39.5097 65.156 31.7632 61.5209 31.4122C64.4791 32.2145 63.727 38.6574 62.5989 39.1588Z" fill="#2B2A29"/>
</svg>
