<svg fill="none" height="15" viewBox="0 0 15 15" width="15" xmlns="http://www.w3.org/2000/svg" xmlns:xlink="http://www.w3.org/1999/xlink"><clipPath id="a"><path d="m0 0h15v15h-15z"/></clipPath><g clip-path="url(#a)" stroke="#f6dd40" stroke-linecap="round" stroke-linejoin="round" stroke-width="1.5"><path d="m5.51777 5.73223c.97631.97632.97631 2.55923 0 3.53554-.97632.97633-2.55923.97633-3.53554 0-.97631-.97632-.97631-2.55923 0-3.53554.97632-.97631 2.55923-.97631 3.53554 0"/><path d="m13.0178 5.73223c.9763.97632.9763 2.55923 0 3.53554-.9763.97633-2.5593.97633-3.53557 0-.97631-.97632-.97631-2.55923 0-3.53554.97627-.97631 2.55927-.97631 3.53557 0"/><path d="m11.25 10h-7.5"/><path d="m1.875 1.875h11.875"/><path d="m1.875 13.125h11.875"/></g></svg>