<svg clip-rule="evenodd" fill-rule="evenodd" stroke-linejoin="round" stroke-miterlimit="2" viewBox="0 0 1920 332" xmlns="http://www.w3.org/2000/svg"><circle cx="941" cy="262" fill="#fff" r="70"/><path d="m879.715 274.528c17.445.799 29.075 11.314 32.709 16.472h15.576v-291h-933v252.067c287.636 7.154 867.269 21.663 884.715 22.461z" fill="#fff" fill-rule="nonzero" transform="matrix(.994772 0 0 1 4.97386 0)"/><path d="m1013.48 275.472c-17.879.801-29.796 11.352-33.52 16.528h-15.96v-292h956v252.933c-294.73 7.179-888.65 21.737-906.52 22.539z" fill="#fff" fill-rule="nonzero"/><path d="m831 0h251v251h-251z" fill="#fff"/><path d="m940.5 224c-23.464 0-42.5 19.036-42.5 42.5s19.036 42.5 42.5 42.5 42.5-19.036 42.5-42.5-19.036-42.5-42.5-42.5z" fill="#2b2a29"/><path d="m940.5 226.605c-22.02 0-39.872 17.852-39.872 39.872 0 22.019 17.852 39.871 39.872 39.871 22.019 0 39.872-17.852 39.872-39.871 0-22.02-17.853-39.872-39.872-39.872z" fill="#ffec00"/><path d="m940.5 242.018c-13.52 0-24.482 10.962-24.482 24.482 0 13.519 10.962 24.482 24.482 24.482 13.519 0 24.482-10.963 24.482-24.482 0-13.52-10.963-24.482-24.482-24.482z" fill="#2b2a29"/><path d="m940.5 244.078c-12.383 0-22.398 10.039-22.398 22.398 0 12.383 10.039 22.399 22.398 22.399 12.383 0 22.398-10.039 22.398-22.399 0-12.383-10.039-22.398-22.398-22.398z" fill="#ffed00"/><g fill="#2b2a29"><path d="m908.797 258.047c-2.747-1.396-3.362-3.741-1.8-7.008l-.876-.45 1.326-2.557.876.45c1.752-3.149 4.002-4.025 6.748-2.604.616.307 1.137.686 1.539 1.112.403.427.687.853.876 1.303.166.449.261.947.261 1.468 0 .52-.072 1.041-.214 1.562s-.331 1.042-.591 1.61l.876.45-1.303 2.534-.876-.45c-.308.544-.615 1.018-.947 1.444-.331.402-.71.781-1.136 1.089s-.876.521-1.35.639c-.473.119-.994.142-1.563.071-.568-.071-1.183-.284-1.799-.592zm1.373-2.675c1.184.616 2.202.213 3.031-1.208l-3.789-1.941c-.686 1.492-.426 2.533.782 3.149zm4.285-3.694c.663-1.491.403-2.533-.805-3.149-1.207-.615-2.202-.213-3.007 1.208l3.789 1.941z" fill-rule="nonzero"/><path d="m921.843 247.227-6.227-9.708 2.533-1.633 3.054 4.759 1.823-7.956.9-.568 6.251 9.731-2.557 1.658-3.078-4.783-1.823 7.932z" fill-rule="nonzero"/><path d="m931.077 232.429-.356-2.605 8.5-1.112.356 2.604-2.794.379 1.16 8.808-2.889.379-1.16-8.808z" fill-rule="nonzero"/><path d="m942.939 239.84 3.149-11.081 2.912.829-1.16 4.025 3.433.971 1.136-4.026 2.913.805-3.149 11.105-2.913-.829 1.255-4.451-3.409-.971-1.255 4.452z" fill-rule="nonzero"/><path d="m954.848 244.196 7.529-8.713 5.446 4.712-1.728 1.989-3.197-2.794-1.065 1.231 2.959 2.557-1.728 1.989-2.96-2.557-1.302 1.515 3.315 2.889-1.728 1.989z" fill-rule="nonzero"/><path d="m967.207 247.819c.687-.308 1.374-.497 2.06-.568.687-.071 1.303-.024 1.871.142s1.113.402 1.61.734c.497.331.947.71 1.326 1.16s.686.947.923 1.492c.213.449.355.899.45 1.373.095.473.142.971.118 1.468-.023.497-.118.971-.284 1.444-.165.45-.402.9-.757 1.35-.355.426-.782.805-1.279 1.136l-1.184-2.628c.876-.829 1.042-1.823.497-3.007-.355-.781-.899-1.302-1.657-1.539s-1.563-.142-2.439.237c-.521.237-.947.568-1.302.971-.355.402-.568.876-.663 1.397-.095.52-.023 1.041.213 1.562.261.592.64 1.018 1.113 1.302.474.285 1.018.379 1.634.285l1.184 2.628c-.616.189-1.208.284-1.776.26s-1.089-.118-1.539-.284c-.45-.189-.876-.426-1.279-.734-.402-.308-.734-.663-1.041-1.065-.285-.403-.545-.805-.758-1.279-.261-.545-.426-1.089-.521-1.681-.095-.568-.095-1.16 0-1.752s.26-1.16.521-1.681c.26-.521.639-1.042 1.136-1.492.498-.473 1.09-.852 1.8-1.184z" fill-rule="nonzero"/><path d="m917.699 296.333 6.227-9.708 2.534 1.634-2.368 3.67.189.118c.45.285.876.474 1.279.521.402.048.734.048.994-.023.261-.071.569-.261.876-.592.308-.308.545-.592.711-.805.165-.213.378-.568.686-1.042.024-.047.048-.071.048-.095.023-.023.023-.047.047-.071.024-.023.047-.071.047-.094l2.534 1.633c-.024.048-.048.095-.095.166-.189.284-.331.497-.426.639s-.237.332-.403.592c-.165.261-.331.45-.449.592-.119.142-.261.308-.45.497-.19.19-.356.355-.521.474-.166.118-.332.237-.568.355-.214.142-.427.237-.64.308s-.45.118-.71.166c-.261.047-.545.071-.829.071l-.094 5.966-.237.379-2.747-1.776.284-5.114c-.236-.095-.568-.284-.994-.545l-2.368 3.694-2.533-1.634z" fill-rule="nonzero"/><path d="m928.993 302.844.095-.426 7.174-10.086 1.255.236 3.03 12.028-.094.403-2.818-.521-1.681-7.198-4.12 6.109z" fill-rule="nonzero"/><path d="m940.453 293.823-.095-.45 3.22-.686 3.007 3.717.071-.024 1.065-4.569 3.126-.663.094.45-3.054 11.956-3.102.663-.071-.307.995-4.002z" fill-rule="nonzero"/><path d="m957.263 300.476-5.516-10.134 7.268-3.954 1.255 2.321-4.664 2.533.686 1.255 1.871-1.018c.521-.284 1.042-.474 1.563-.545.521-.094.994-.071 1.397.024.426.095.828.261 1.183.474.379.213.687.497.924.852.237.331.426.71.592 1.089.165.379.213.805.213 1.231-.024.426-.095.853-.237 1.255-.142.403-.402.805-.734 1.184-.355.379-.805.734-1.326 1.018l-4.451 2.415zm1.326-3.717 1.847-1.018c.213-.119.402-.284.521-.474.118-.189.166-.379.166-.568s-.071-.379-.143-.545c-.094-.165-.213-.307-.378-.426-.166-.118-.355-.165-.569-.165-.213 0-.449.047-.663.165l-1.846 1.018 1.089 1.989z" fill-rule="nonzero"/><path d="m949.876 277.841c.095-.426.994-1.444 1.373-1.752.142-.118.284-.142.355-.284.024-.024.048-.071.048-.095.213-.497.402-.426.497-.852.118-.474-.095-1.208.734-1.397 1.586-.379.9.758.876.829-.071.237.024.166-.118.355-.498.687-.758.781-1.445 1.255-.26.189-.757.473-.923.663-.118.142-.095.213-.213.331-.166.19-.355.308-.545.497-.094.095-.426.427-.639.45zm-15.887-9.021-.024 3.078c-.639.213-1.373.356-2.012.521-.356.095-.711.19-1.042.261-1.444.331.308.426-1.894.663-.048 0-.142 0-.19.023-.236.048-.094 0-.189.071-.119.19-.071.734-.047.995.047.095 5.327 2.415 5.895 2.675.497.237.592.142 1.137-.023.331-.095.781-.213 1.112-.332.048-.402.024-.781 0-1.184l-1.799.284v-7.41c0-.285.616-.782.758-1.208l7.268 1.894c-.639.284-6.463 1.823-7.079 1.989v.687c.663-.095 1.586-.45 2.226-.616l4.451-1.255c.734-.189 1.657-.663 2.178-.213l-8.855 3.031v1.113c.497-.048 8.737-2.936 10.086-3.386.474-.166.45-.261.995-.071.473.142 3.599 1.136 3.812 1.113l.023-.9c-.331-.213-4.853-1.444-5.895-1.776-.213-.071-.71-.095-.781-.331.094-.166.307-.142.544-.19l1.871-.45c1.325-.378 1.16-.615 1.515-.781.118-.047.497-.166.639-.189.332.236.237.165.639.331.119.189.119.497.214.71.094.237.165.427.307.64.237.378.545.639 1.089.757.048.853.119 1.539.214 2.321.189 1.397.165 1.018-.048 2.225-.994.355-1.61 1.421-2.083 2.013-.308.379-.284.45-.498.9-.213.52-.686 1.728-.047 2.083.237.118.923.213 1.208.118.094-.023.284-.26.355-.331.26-.26.094-.26.237-.474.118-.118.544-.307.734-.449.734-.521 1.302-1.113 1.941-1.752.592-.569 1.16-1.397 1.421-2.273.094-.332.189-.687.284-.971.284 0 .331.023.497.118-.024.568-.332.853-.616 1.279-.402.639-.26.805-.213 1.586.332.071.947 0 1.326 0 .734 0 1.823.237 2.486-.071.426-.213.403-.521.379-.994-.213-.119-.616-.332-.876-.403-.284-.071-.284 0-.497-.142-.947-.616-.568.758-1.989.355-.071-.284-.071-.592.047-.829.119-.236.19-.426.284-.662.995-.071 1.942.591 2.889.734.521.094.639 0 .971-.237.781-.521 1.444-.995 2.036-1.658.189-.213.118-.757.118-1.112-.26.047-1.16.734-1.397.923-.236.166-.426.308-.686.521-.166.118-.166.118-.308.284-.095.118-.189.166-.402.142-.403-.071-3.576-.876-3.741-.994 0-.024 0-.048-.024-.048 0 .048-.024-.379.142-1.065.095-.426.166-.687.189-1.16.261.047.853.331 1.232.426.473.118.923.213 1.42.189l1.042-1.136c.473-.758.26-.924-.095-1.539-1.136-2.013-2.794-3.078-4.309-4.641l-1.184-1.065c-.473-.403-.544-.592-1.373-.853 0-.165.024-.26.142-.379.355-.331.639.474 1.563.805.828.308 1.87.237 2.415-.26 1.065-.971 1.16-3.267.615-4.901-.284-.876-.71-1.35-1.184-1.847-1.16-1.255-3.125-1.065-4.143.284-.592.782-.568 1.444-.568 2.51l-.355.024v.355l.615-.024c0 .142.024.284.024.426-3.244.142-7.624.64-11.578 1.563-.118-.142-.095-.166-.166-.284-.142-.213-.118-.19-.402-.213-.545-.071-.521.023-.782-.403-2.107-.142-2.012.45-1.752 1.705.095.497.048.639.024 1.16.284.19.237.237.26.639.805.237.024.498.758.876.047.379-.095.356.26.521.071.427-.118.521.214.758.189.142.236.308.402.545.805 1.183 2.581 2.533 2.818 3.007l-5.067-1.303c-.024-.165.189-.947.213-1.255.26-2.746-.426-5.043-1.752-7.245-1.468-2.462-5.091-5.232-7.861-3.48 2.155-.213 4.83 1.113 6.511 3.93 1.255 2.107 3.173 8.713.45 10.56.095 0 .189 0 .284-.024zm-3.22 4.641c.331-.142 2.817-.805 3.244-.829v1.942c-.711-.047-1.776-.521-2.463-.805-.213-.095-.615-.19-.758-.308zm11.625-8.713c1.255 0 1.113.189 1.397.331.639.308 1.942.285 2.202.805-.047.072 0 .024-.095.072-.023.023-.094.047-.118.071-.592.284-1.468.497-2.107.355-.734-.166-1.208-.805-1.279-1.658zm8.642.142c.119-.095.071-.047.237-.118.947-.332 2.202-1.042 3.054-1.089.64-.024 1.823 1.396 2.51 1.965.45.379 1.065 1.041 1.421 1.61.189.308.544.592.331 1.018-.26.544-.876.095-1.018-.024-.308-.189-.616-.379-.923-.592-.427-.308-1.326-1.562-1.658-.568-.118.331-.071 2.202-.26 2.747-.071.189-.142.899-.355 1.183l-.308.19c-.403.308-1.208.142-1.35-.474-.213-.971-.047-2.036-.189-2.486-.048-.166-.119-.213-.19-.355-.071-.118-.094-.284-.118-.426-.142-.45-.545-1.16-.473-1.658.331 0 1.278.095 1.491-.071.024-.284.048-.118-.118-.236-.095-.071-.166-.095-.284-.119-.829-.165-.332 0-1.232-.308-.568-.189-.26.071-.591-.236zm-7.766-.805c-.118-.9 1.539-2.415 2.013-2.675 1.207-.663 2.107-.948 3.717-.948.876 0 1.373-.094 2.013.308.189.119.307.119.497.19.734.236 1.349.781 1.752 1.184.852.852.284 1.041-.687 1.349-.615.19-1.728.497-2.415.521.048-.071 0-.024.071-.095l.497-.26c2.013-1.018-.047-2.344-2.746-1.847-.9.166-1.681.852-2.344 1.231-.19.095-.379.19-.592.308-.237.118-.308.284-.521.379-.26.142-.521.024-.687.213-.165.166-.284.26-.615.142zm-5.73-3.504c.166-.047.498-.071.616-.119.213-.118 0-.071.237-.189.165-.071.118.024.26-.095.213-.142.308-.71.687-.71.213.284.142.758-.048.994-.142.19-.142.166-.236.403-.024.071-.829.829-1.303.592-.26-.142-.307-.521-.189-.9zm2.131 1.444c-.023-.118-.165-.663-.213-.781-.047-.119-.355-.213-.023-.71.094-.143.142-.143.189-.285.047-.189.024-.26.166-.331 1.515-.758 10.37-1.752 11.388-1.705l-.047.403 1.349-.024.048 1.231-1.634-.26-.45.568c-2.557.047-3.504-.213-5.374 1.042-.947.639-1.895 1.491-2.202 2.628-.142.521-.237.237-.947.663-.095.497.094.9-.142 1.397-.119.237-.545.639-.924.521.426-.237.758-.426.829-1.113.095-1.018-.071-.9-.924-.947-.047-.355-.118-.568-.331-.829l-.474-.663c-.639-.024-.236.616-1.373.616l.308-.166c.876-.355 0-1.184.047-2.036.498.142.261.615.734.828zm11.933-4.688c.474-.071 1.682-.26 2.108-.189v.568c-.45.118-1.634.284-2.108.166zm-4.285 22.659c.024-.829.947-1.042.379-1.681l-.663 1.184c-.142.26-.497.994-.379 1.373.118.331.142-.189.213.687.071.757.261 1.397.781 1.894.805.757 2.344.426 2.415-.379.048-.568.095-1.16-.165-1.634-.379-.686-.261-.663-.284-1.515-.119-.047-.071-.024-.142-.047-.024 0-.024 0-.048-.024l-.118-.048.118-.473-1.065.166c-.095.307-.024.426-.332.45-.213 0-.544.047-.734.023zm-4.925-16.242c.616-.095.284-.024.663-.829.166-.308.403-.687.616-.876l-.071-.024-.024-.024c-.142-.094-.118-.165-.166-.213h-.331l-.071-.236c-.355 0-.403.213-.592.355-.213.142-.616.047-.9.047-.758 0-.71.142-1.231.474-.047 1.089 1.799 2.722 2.083 1.349zm16.811 6.795c.355-.19.734-.403.686-.947-.023-.166-.284-1.137-.355-1.255l-.189.024c-.095.213-.024.355-.166.568l-.971 1.16c.119.095.379.118.545.189.189.095.26.19.45.261zm-26.637-12.194c-2.391-3.977-6.771-4.972-8.808-2.865 2.179-.781 5.351.45 7.246 3.599 1.231 2.06 3.101 8.548.355 10.252.189 0 .379 0 .592-.023 4.19-.782 2.012-8.642.615-10.963zm-2.438 1.137c-3.126-5.186-9.826-5.02-9.306.899.379 4.428 3.694 9.945 8.737 9.471 3.978-.734 1.894-8.168.569-10.37zm-7.956 3.599c.189-.071.426.142.545.473.118.332.071.639-.119.71-.189.071-.426-.142-.544-.473-.119-.332-.071-.639.118-.71zm4.641-.237-3.883 1.468c.142-.166.165-.497.047-.829-.118-.331-.355-.592-.568-.615l3.812-1.326c.663.213.876.994.592 1.302zm29.217-1.61c2.107.45 2.818-7.861-1.089-7.814.426.119.829.332 1.184.711 1.965 2.107 1.231 7.055-.071 7.103zm1.089-.261c1.563.332 2.415-6.984-1.018-7.316 2.794.758 2.084 6.843 1.018 7.316z"/></g></svg>