<?xml version="1.0" encoding="UTF-8" standalone="no"?>
<!DOCTYPE svg PUBLIC "-//W3C//DTD SVG 1.1//EN" "http://www.w3.org/Graphics/SVG/1.1/DTD/svg11.dtd">
<svg width="100%" height="100%" viewBox="0 0 1920 332" version="1.1" xmlns="http://www.w3.org/2000/svg" xmlns:xlink="http://www.w3.org/1999/xlink" xml:space="preserve" xmlns:serif="http://www.serif.com/" style="fill-rule:evenodd;clip-rule:evenodd;stroke-linejoin:round;stroke-miterlimit:2;">
    <circle cx="941" cy="262" r="70" style="fill:white;"/>
    <g transform="matrix(0.994772,0,0,1,4.97386,0)">
        <path d="M879.715,274.528C897.16,275.327 908.79,285.842 912.424,291L928,291L928,0L-5,0L-5,252.067C282.636,259.221 862.269,273.73 879.715,274.528Z" style="fill:white;fill-rule:nonzero;"/>
    </g>
    <path d="M1013.48,275.472C995.601,276.273 983.684,286.824 979.96,292L964,292L964,0L1920,0L1920,252.933C1625.27,260.112 1031.35,274.67 1013.48,275.472Z" style="fill:white;fill-rule:nonzero;"/>
    <rect x="831" y="0" width="251" height="251" style="fill:white;"/>
    <path d="M940.5,224C917.036,224 898,243.036 898,266.5C898,289.964 917.036,309 940.5,309C963.964,309 983,289.964 983,266.5C983,243.036 963.964,224 940.5,224Z" style="fill:rgb(43,42,41);"/>
    <path d="M940.5,226.605C918.48,226.605 900.628,244.457 900.628,266.477C900.628,288.496 918.48,306.348 940.5,306.348C962.519,306.348 980.372,288.496 980.372,266.477C980.372,244.457 962.519,226.605 940.5,226.605Z" style="fill:rgb(255,236,0);"/>
    <path d="M940.5,242.018C926.98,242.018 916.018,252.98 916.018,266.5C916.018,280.019 926.98,290.982 940.5,290.982C954.019,290.982 964.982,280.019 964.982,266.5C964.982,252.98 954.019,242.018 940.5,242.018Z" style="fill:rgb(43,42,41);"/>
    <path d="M940.5,244.078C928.117,244.078 918.102,254.117 918.102,266.476C918.102,278.859 928.141,288.875 940.5,288.875C952.883,288.875 962.898,278.836 962.898,266.476C962.898,254.093 952.859,244.078 940.5,244.078Z" style="fill:rgb(255,237,0);"/>
    <path d="M908.797,258.047C906.05,256.651 905.435,254.306 906.997,251.039L906.121,250.589L907.447,248.032L908.323,248.482C910.075,245.333 912.325,244.457 915.071,245.878C915.687,246.185 916.208,246.564 916.61,246.99C917.013,247.417 917.297,247.843 917.486,248.293C917.652,248.742 917.747,249.24 917.747,249.761C917.747,250.281 917.675,250.802 917.533,251.323C917.391,251.844 917.202,252.365 916.942,252.933L917.818,253.383L916.515,255.917L915.639,255.467C915.331,256.011 915.024,256.485 914.692,256.911C914.361,257.313 913.982,257.692 913.556,258C913.13,258.308 912.68,258.521 912.206,258.639C911.733,258.758 911.212,258.781 910.643,258.71C910.075,258.639 909.46,258.426 908.844,258.118L908.797,258.047ZM910.17,255.372C911.354,255.988 912.372,255.585 913.201,254.164L909.412,252.223C908.726,253.715 908.986,254.756 910.194,255.372L910.17,255.372ZM914.455,251.678C915.118,250.187 914.858,249.145 913.65,248.529C912.443,247.914 911.448,248.316 910.643,249.737L914.432,251.678L914.455,251.678Z" style="fill:rgb(43,42,41);fill-rule:nonzero;"/>
    <path d="M921.843,247.227L915.616,237.519L918.149,235.886L921.203,240.645L923.026,232.689L923.926,232.121L930.177,241.852L927.62,243.51L924.542,238.727L922.719,246.659L921.843,247.227Z" style="fill:rgb(43,42,41);fill-rule:nonzero;"/>
    <path d="M931.077,232.429L930.721,229.824L939.221,228.712L939.577,231.316L936.783,231.695L937.943,240.503L935.054,240.882L933.894,232.074L931.077,232.429Z" style="fill:rgb(43,42,41);fill-rule:nonzero;"/>
    <path d="M942.939,239.84L946.088,228.759L949,229.588L947.84,233.613L951.273,234.584L952.409,230.558L955.322,231.363L952.173,242.468L949.26,241.639L950.515,237.188L947.106,236.217L945.851,240.669L942.939,239.84Z" style="fill:rgb(43,42,41);fill-rule:nonzero;"/>
    <path d="M954.848,244.196L962.377,235.483L967.823,240.195L966.095,242.184L962.898,239.39L961.833,240.621L964.792,243.178L963.064,245.167L960.104,242.61L958.802,244.125L962.117,247.014L960.389,249.003L954.848,244.196Z" style="fill:rgb(43,42,41);fill-rule:nonzero;"/>
    <path d="M967.207,247.819C967.894,247.511 968.581,247.322 969.267,247.251C969.954,247.18 970.57,247.227 971.138,247.393C971.706,247.559 972.251,247.795 972.748,248.127C973.245,248.458 973.695,248.837 974.074,249.287C974.453,249.737 974.76,250.234 974.997,250.779C975.21,251.228 975.352,251.678 975.447,252.152C975.542,252.625 975.589,253.123 975.565,253.62C975.542,254.117 975.447,254.591 975.281,255.064C975.116,255.514 974.879,255.964 974.524,256.414C974.169,256.84 973.742,257.219 973.245,257.55L972.061,254.922C972.937,254.093 973.103,253.099 972.558,251.915C972.203,251.134 971.659,250.613 970.901,250.376C970.143,250.139 969.338,250.234 968.462,250.613C967.941,250.85 967.515,251.181 967.16,251.584C966.805,251.986 966.592,252.46 966.497,252.981C966.402,253.501 966.474,254.022 966.71,254.543C966.971,255.135 967.35,255.561 967.823,255.845C968.297,256.13 968.841,256.224 969.457,256.13L970.641,258.758C970.025,258.947 969.433,259.042 968.865,259.018C968.297,258.994 967.776,258.9 967.326,258.734C966.876,258.545 966.45,258.308 966.047,258C965.645,257.692 965.313,257.337 965.006,256.935C964.721,256.532 964.461,256.13 964.248,255.656C963.987,255.111 963.822,254.567 963.727,253.975C963.632,253.407 963.632,252.815 963.727,252.223C963.822,251.631 963.987,251.063 964.248,250.542C964.508,250.021 964.887,249.5 965.384,249.05C965.882,248.577 966.474,248.198 967.184,247.866L967.207,247.819Z" style="fill:rgb(43,42,41);fill-rule:nonzero;"/>
    <path d="M917.699,296.333L923.926,286.625L926.46,288.259L924.092,291.929L924.281,292.047C924.731,292.332 925.157,292.521 925.56,292.568C925.962,292.616 926.294,292.616 926.554,292.545C926.815,292.474 927.123,292.284 927.43,291.953C927.738,291.645 927.975,291.361 928.141,291.148C928.306,290.935 928.519,290.58 928.827,290.106C928.851,290.059 928.875,290.035 928.875,290.011C928.898,289.988 928.898,289.964 928.922,289.94C928.946,289.917 928.969,289.869 928.969,289.846L931.503,291.479C931.479,291.527 931.455,291.574 931.408,291.645C931.219,291.929 931.077,292.142 930.982,292.284C930.887,292.426 930.745,292.616 930.579,292.876C930.414,293.137 930.248,293.326 930.13,293.468C930.011,293.61 929.869,293.776 929.68,293.965C929.49,294.155 929.324,294.32 929.159,294.439C928.993,294.557 928.827,294.676 928.591,294.794C928.377,294.936 928.164,295.031 927.951,295.102C927.738,295.173 927.501,295.22 927.241,295.268C926.98,295.315 926.696,295.339 926.412,295.339L926.318,301.305L926.081,301.684L923.334,299.908L923.618,294.794C923.382,294.699 923.05,294.51 922.624,294.249L920.256,297.943L917.723,296.309L917.699,296.333Z" style="fill:rgb(43,42,41);fill-rule:nonzero;"/>
    <path d="M928.993,302.844L929.088,302.418L936.262,292.332L937.517,292.568L940.547,304.596L940.453,304.999L937.635,304.478L935.954,297.28L931.834,303.389L928.993,302.844Z" style="fill:rgb(43,42,41);fill-rule:nonzero;"/>
    <path d="M940.453,293.823L940.358,293.373L943.578,292.687L946.585,296.404L946.656,296.38L947.721,291.811L950.847,291.148L950.941,291.598L947.887,303.554L944.785,304.217L944.714,303.91L945.709,299.908L940.453,293.823Z" style="fill:rgb(43,42,41);fill-rule:nonzero;"/>
    <path d="M957.263,300.476L951.747,290.342L959.015,286.388L960.27,288.709L955.606,291.242L956.292,292.497L958.163,291.479C958.684,291.195 959.205,291.005 959.726,290.934C960.247,290.84 960.72,290.863 961.123,290.958C961.549,291.053 961.951,291.219 962.306,291.432C962.685,291.645 962.993,291.929 963.23,292.284C963.467,292.615 963.656,292.994 963.822,293.373C963.987,293.752 964.035,294.178 964.035,294.604C964.011,295.03 963.94,295.457 963.798,295.859C963.656,296.262 963.396,296.664 963.064,297.043C962.709,297.422 962.259,297.777 961.738,298.061L957.287,300.476L957.263,300.476ZM958.589,296.759L960.436,295.741C960.649,295.622 960.838,295.457 960.957,295.267C961.075,295.078 961.123,294.888 961.123,294.699C961.123,294.51 961.052,294.32 960.98,294.154C960.886,293.989 960.767,293.847 960.602,293.728C960.436,293.61 960.247,293.563 960.033,293.563C959.82,293.563 959.584,293.61 959.37,293.728L957.524,294.746L958.613,296.735L958.589,296.759Z" style="fill:rgb(43,42,41);fill-rule:nonzero;"/>
    <path d="M949.876,277.841C949.971,277.415 950.87,276.397 951.249,276.089C951.391,275.971 951.533,275.947 951.604,275.805C951.628,275.781 951.652,275.734 951.652,275.71C951.865,275.213 952.054,275.284 952.149,274.858C952.267,274.384 952.054,273.65 952.883,273.461C954.469,273.082 953.783,274.219 953.759,274.29C953.688,274.527 953.783,274.456 953.641,274.645C953.143,275.332 952.883,275.426 952.196,275.9C951.936,276.089 951.439,276.373 951.273,276.563C951.155,276.705 951.178,276.776 951.06,276.894C950.894,277.084 950.705,277.202 950.515,277.391C950.421,277.486 950.089,277.818 949.876,277.841ZM933.989,268.82L933.965,271.898C933.326,272.111 932.592,272.254 931.953,272.419C931.597,272.514 931.242,272.609 930.911,272.68C929.467,273.011 931.219,273.106 929.017,273.343C928.969,273.343 928.875,273.343 928.827,273.366C928.591,273.414 928.733,273.366 928.638,273.437C928.519,273.627 928.567,274.171 928.591,274.432C928.638,274.527 933.918,276.847 934.486,277.107C934.983,277.344 935.078,277.249 935.623,277.084C935.954,276.989 936.404,276.871 936.735,276.752C936.783,276.35 936.759,275.971 936.735,275.568L934.936,275.852L934.936,268.442C934.936,268.157 935.552,267.66 935.694,267.234L942.962,269.128C942.323,269.412 936.499,270.951 935.883,271.117L935.883,271.804C936.546,271.709 937.469,271.354 938.109,271.188L942.56,269.933C943.294,269.744 944.217,269.27 944.738,269.72L935.883,272.751L935.883,273.864C936.38,273.816 944.62,270.928 945.969,270.478C946.443,270.312 946.419,270.217 946.964,270.407C947.437,270.549 950.563,271.543 950.776,271.52L950.799,270.62C950.468,270.407 945.946,269.176 944.904,268.844C944.691,268.773 944.194,268.749 944.123,268.513C944.217,268.347 944.43,268.371 944.667,268.323L946.538,267.873C947.863,267.495 947.698,267.258 948.053,267.092C948.171,267.045 948.55,266.926 948.692,266.903C949.024,267.139 948.929,267.068 949.331,267.234C949.45,267.423 949.45,267.731 949.545,267.944C949.639,268.181 949.71,268.371 949.852,268.584C950.089,268.962 950.397,269.223 950.941,269.341C950.989,270.194 951.06,270.88 951.155,271.662C951.344,273.059 951.32,272.68 951.107,273.887C950.113,274.242 949.497,275.308 949.024,275.9C948.716,276.279 948.74,276.35 948.526,276.8C948.313,277.32 947.84,278.528 948.479,278.883C948.716,279.001 949.402,279.096 949.687,279.001C949.781,278.978 949.971,278.741 950.042,278.67C950.302,278.41 950.136,278.41 950.279,278.196C950.397,278.078 950.823,277.889 951.013,277.747C951.747,277.226 952.315,276.634 952.954,275.995C953.546,275.426 954.114,274.598 954.375,273.722C954.469,273.39 954.564,273.035 954.659,272.751C954.943,272.751 954.99,272.774 955.156,272.869C955.132,273.437 954.824,273.722 954.54,274.148C954.138,274.787 954.28,274.953 954.327,275.734C954.659,275.805 955.274,275.734 955.653,275.734C956.387,275.734 957.476,275.971 958.139,275.663C958.565,275.45 958.542,275.142 958.518,274.669C958.305,274.55 957.902,274.337 957.642,274.266C957.358,274.195 957.358,274.266 957.145,274.124C956.198,273.508 956.577,274.882 955.156,274.479C955.085,274.195 955.085,273.887 955.203,273.65C955.322,273.414 955.393,273.224 955.487,272.988C956.482,272.917 957.429,273.579 958.376,273.722C958.897,273.816 959.015,273.722 959.347,273.485C960.128,272.964 960.791,272.49 961.383,271.827C961.572,271.614 961.501,271.07 961.501,270.715C961.241,270.762 960.341,271.449 960.104,271.638C959.868,271.804 959.678,271.946 959.418,272.159C959.252,272.277 959.252,272.277 959.11,272.443C959.015,272.561 958.921,272.609 958.708,272.585C958.305,272.514 955.132,271.709 954.967,271.591C954.967,271.567 954.967,271.543 954.943,271.543C954.943,271.591 954.919,271.164 955.085,270.478C955.18,270.052 955.251,269.791 955.274,269.318C955.535,269.365 956.127,269.649 956.506,269.744C956.979,269.862 957.429,269.957 957.926,269.933L958.968,268.797C959.441,268.039 959.228,267.873 958.873,267.258C957.737,265.245 956.079,264.18 954.564,262.617L953.38,261.552C952.907,261.149 952.836,260.96 952.007,260.699C952.007,260.534 952.031,260.439 952.149,260.32C952.504,259.989 952.788,260.794 953.712,261.125C954.54,261.433 955.582,261.362 956.127,260.865C957.192,259.894 957.287,257.598 956.742,255.964C956.458,255.088 956.032,254.614 955.558,254.117C954.398,252.862 952.433,253.052 951.415,254.401C950.823,255.183 950.847,255.845 950.847,256.911L950.492,256.935L950.492,257.29L951.107,257.266C951.107,257.408 951.131,257.55 951.131,257.692C947.887,257.834 943.507,258.332 939.553,259.255C939.435,259.113 939.458,259.089 939.387,258.971C939.245,258.758 939.269,258.781 938.985,258.758C938.44,258.687 938.464,258.781 938.203,258.355C936.096,258.213 936.191,258.805 936.451,260.06C936.546,260.557 936.499,260.699 936.475,261.22C936.759,261.41 936.712,261.457 936.735,261.859C937.54,262.096 936.759,262.357 937.493,262.735C937.54,263.114 937.398,263.091 937.753,263.256C937.824,263.683 937.635,263.777 937.967,264.014C938.156,264.156 938.203,264.322 938.369,264.559C939.174,265.742 940.95,267.092 941.187,267.566L936.12,266.263C936.096,266.098 936.309,265.316 936.333,265.008C936.593,262.262 935.907,259.965 934.581,257.763C933.113,255.301 929.49,252.531 926.72,254.283C928.875,254.07 931.55,255.396 933.231,258.213C934.486,260.32 936.404,266.926 933.681,268.773C933.776,268.773 933.87,268.773 933.965,268.749L933.989,268.82ZM930.769,273.461C931.1,273.319 933.586,272.656 934.013,272.632L934.013,274.574C933.302,274.527 932.237,274.053 931.55,273.769C931.337,273.674 930.935,273.579 930.792,273.461L930.769,273.461ZM942.394,264.748C943.649,264.748 943.507,264.937 943.791,265.079C944.43,265.387 945.733,265.364 945.993,265.884C945.946,265.956 945.993,265.908 945.898,265.956C945.875,265.979 945.804,266.003 945.78,266.027C945.188,266.311 944.312,266.524 943.673,266.382C942.939,266.216 942.465,265.577 942.394,264.724L942.394,264.748ZM951.036,264.89C951.155,264.795 951.107,264.843 951.273,264.772C952.22,264.44 953.475,263.73 954.327,263.683C954.967,263.659 956.15,265.079 956.837,265.648C957.287,266.027 957.902,266.689 958.258,267.258C958.447,267.566 958.802,267.85 958.589,268.276C958.329,268.82 957.713,268.371 957.571,268.252C957.263,268.063 956.955,267.873 956.648,267.66C956.221,267.352 955.322,266.098 954.99,267.092C954.872,267.423 954.919,269.294 954.73,269.839C954.659,270.028 954.588,270.738 954.375,271.022L954.067,271.212C953.664,271.52 952.859,271.354 952.717,270.738C952.504,269.767 952.67,268.702 952.528,268.252C952.48,268.086 952.409,268.039 952.338,267.897C952.267,267.779 952.244,267.613 952.22,267.471C952.078,267.021 951.675,266.311 951.747,265.813C952.078,265.813 953.025,265.908 953.238,265.742C953.262,265.458 953.286,265.624 953.12,265.506C953.025,265.435 952.954,265.411 952.836,265.387C952.007,265.222 952.504,265.387 951.604,265.079C951.036,264.89 951.344,265.15 951.013,264.843L951.036,264.89ZM943.27,264.085C943.152,263.185 944.809,261.67 945.283,261.41C946.49,260.747 947.39,260.462 949,260.462C949.876,260.462 950.373,260.368 951.013,260.77C951.202,260.889 951.32,260.889 951.51,260.96C952.244,261.196 952.859,261.741 953.262,262.144C954.114,262.996 953.546,263.185 952.575,263.493C951.96,263.683 950.847,263.99 950.16,264.014C950.208,263.943 950.16,263.99 950.231,263.919L950.728,263.659C952.741,262.641 950.681,261.315 947.982,261.812C947.082,261.978 946.301,262.664 945.638,263.043C945.448,263.138 945.259,263.233 945.046,263.351C944.809,263.469 944.738,263.635 944.525,263.73C944.265,263.872 944.004,263.754 943.838,263.943C943.673,264.109 943.554,264.203 943.223,264.085L943.27,264.085ZM937.54,260.581C937.706,260.534 938.038,260.51 938.156,260.462C938.369,260.344 938.156,260.391 938.393,260.273C938.558,260.202 938.511,260.297 938.653,260.178C938.866,260.036 938.961,259.468 939.34,259.468C939.553,259.752 939.482,260.226 939.292,260.462C939.15,260.652 939.15,260.628 939.056,260.865C939.032,260.936 938.227,261.694 937.753,261.457C937.493,261.315 937.446,260.936 937.564,260.557L937.54,260.581ZM939.671,262.025C939.648,261.907 939.506,261.362 939.458,261.244C939.411,261.125 939.103,261.031 939.435,260.534C939.529,260.391 939.577,260.391 939.624,260.249C939.671,260.06 939.648,259.989 939.79,259.918C941.305,259.16 950.16,258.166 951.178,258.213L951.131,258.616L952.48,258.592L952.528,259.823L950.894,259.563L950.444,260.131C947.887,260.178 946.94,259.918 945.07,261.173C944.123,261.812 943.175,262.664 942.868,263.801C942.726,264.322 942.631,264.038 941.921,264.464C941.826,264.961 942.015,265.364 941.779,265.861C941.66,266.098 941.234,266.5 940.855,266.382C941.281,266.145 941.613,265.956 941.684,265.269C941.779,264.251 941.613,264.369 940.76,264.322C940.713,263.967 940.642,263.754 940.429,263.493L939.955,262.83C939.316,262.806 939.719,263.446 938.582,263.446L938.89,263.28C939.766,262.925 938.89,262.096 938.937,261.244C939.435,261.386 939.198,261.859 939.671,262.072L939.671,262.025ZM951.604,257.337C952.078,257.266 953.286,257.077 953.712,257.148L953.712,257.716C953.262,257.834 952.078,258 951.604,257.882L951.604,257.337ZM947.319,279.996C947.343,279.167 948.266,278.954 947.698,278.315L947.035,279.499C946.893,279.759 946.538,280.493 946.656,280.872C946.774,281.203 946.798,280.683 946.869,281.559C946.94,282.316 947.13,282.956 947.65,283.453C948.455,284.21 949.994,283.879 950.065,283.074C950.113,282.506 950.16,281.914 949.9,281.44C949.521,280.754 949.639,280.777 949.616,279.925C949.497,279.878 949.545,279.901 949.474,279.878C949.45,279.878 949.45,279.878 949.426,279.854L949.308,279.806L949.426,279.333L948.361,279.499C948.266,279.806 948.337,279.925 948.029,279.949C947.816,279.949 947.485,279.996 947.295,279.972L947.319,279.996ZM942.394,263.754C943.01,263.659 942.678,263.73 943.057,262.925C943.223,262.617 943.46,262.238 943.673,262.049L943.602,262.025L943.578,262.001C943.436,261.907 943.46,261.836 943.412,261.788L943.081,261.788L943.01,261.552C942.655,261.552 942.607,261.765 942.418,261.907C942.205,262.049 941.802,261.954 941.518,261.954C940.76,261.954 940.808,262.096 940.287,262.428C940.24,263.517 942.086,265.15 942.37,263.777L942.394,263.754ZM959.205,270.549C959.56,270.359 959.939,270.146 959.891,269.602C959.868,269.436 959.607,268.465 959.536,268.347L959.347,268.371C959.252,268.584 959.323,268.726 959.181,268.939L958.21,270.099C958.329,270.194 958.589,270.217 958.755,270.288C958.944,270.383 959.015,270.478 959.205,270.549ZM932.568,258.355C930.177,254.378 925.797,253.383 923.76,255.49C925.939,254.709 929.111,255.94 931.006,259.089C932.237,261.149 934.107,267.637 931.361,269.341C931.55,269.341 931.74,269.341 931.953,269.318C936.143,268.536 933.965,260.676 932.568,258.355ZM930.13,259.492C927.004,254.306 920.304,254.472 920.824,260.391C921.203,264.819 924.518,270.336 929.561,269.862C933.539,269.128 931.455,261.694 930.13,259.492ZM922.174,263.091C922.363,263.02 922.6,263.233 922.719,263.564C922.837,263.896 922.79,264.203 922.6,264.274C922.411,264.345 922.174,264.132 922.056,263.801C921.937,263.469 921.985,263.162 922.174,263.091ZM926.815,262.854L922.932,264.322C923.074,264.156 923.097,263.825 922.979,263.493C922.861,263.162 922.624,262.901 922.411,262.878L926.223,261.552C926.886,261.765 927.099,262.546 926.815,262.854ZM956.032,261.244C958.139,261.694 958.85,253.383 954.943,253.43C955.369,253.549 955.772,253.762 956.127,254.141C958.092,256.248 957.358,261.196 956.056,261.244L956.032,261.244ZM957.121,260.983C958.684,261.315 959.536,253.999 956.103,253.667C958.897,254.425 958.187,260.51 957.121,260.983Z" style="fill:rgb(43,42,41);"/>
</svg>
