<svg fill="none" height="213" viewBox="0 0 1811 213" width="1811" xmlns="http://www.w3.org/2000/svg"><path d="m223.501 125.296c-2.926.283-5.522.614-7.788.991-2.266.378-5.098 1.133-8.496 2.266-3.871 1.227-6.419 3.257-7.647 6.089-1.227 2.832-1.841 5.805-1.841 8.92v23.365c0 4.72.048 8.543.142 11.469.094 2.833.236 6.373.425 10.621-9.44 5.664-23.412 10.997-41.914 16.001-18.408 5.003-35.353 7.504-50.835 7.504-14.5379 0-28.1788-2.218-40.923-6.655-12.7441-4.437-23.9306-11.092-33.5595-19.966-9.629-8.779-17.2282-19.682-22.7979-32.71-5.47526-13.027-8.2128891-27.942-8.2128891-44.746 0-15.6703 2.5960291-30.1608 7.7880891-43.4714 5.1921-13.3105 12.6969-24.7802 22.5146-34.4091 9.629-9.5346 21.3347-16.8978 35.1172-22.08989 13.877-5.19206 29.2172-7.788087 46.0204-7.788087 11.423 0 21.996 1.416017 31.719 4.248047 9.723 2.73763 17.747 5.71123 24.072 8.92093l8.779-7.78812h12.32l1.274 73.34962h-12.461c-7.174-21.9955-15.765-38.3268-25.771-48.9941-10.007-10.6674-22.656-16.001-37.949-16.001-18.1254 0-32.144 7.9297-42.0561 23.789-9.8177 15.8594-14.7266 37.7133-14.7266 65.5611 0 29.548 4.8145 52.676 14.4434 69.385 9.7233 16.709 23.4587 25.064 41.2063 25.064 8.307 0 15.67-1.228 22.09-3.682 6.513-2.549 11.564-5.475 15.151-8.779v-40.781c0-3.399-.614-6.231-1.841-8.497-1.227-2.36-3.682-4.389-7.363-6.088-2.832-1.322-6.372-2.408-10.62-3.257-4.248-.85-7.788-1.463-10.62-1.841v-11.045h104.36zm210.618-96.8556c9.912 9.0625 17.748 20.0131 23.506 32.8516 5.853 12.8385 8.779 27.4707 8.779 43.896 0 14.633-2.454 28.557-7.363 41.773s-11.989 24.591-21.24 34.126c-9.724 9.912-21.146 17.653-34.268 23.223-13.122 5.475-28.745 8.212-46.87 8.212-14.632 0-28.462-2.407-41.489-7.221-13.028-4.815-24.497-11.8-34.409-20.957-9.818-8.968-17.606-19.872-23.365-32.71-5.758-12.839-8.637-27.141-8.637-42.905 0-16.4263 2.785-31.2944 8.354-44.605 5.664-13.4049 13.405-24.8747 23.223-34.4092 9.723-9.3457 21.24-16.5201 34.551-21.52339 13.405-5.09766 27.659-7.646488 42.763-7.646488 15.01 0 29.076 2.454428 42.198 7.363278 13.216 4.9089 24.638 11.7529 34.267 20.5322zm-36.391 143.7256c4.248-8.59 7.316-18.314 9.204-29.17s2.832-23.128 2.832-36.816c0-11.6116-.85-22.8926-2.549-33.8431-1.605-11.0449-4.39-20.8626-8.355-29.4531-4.059-8.5905-9.44-15.4818-16.142-20.6738-6.703-5.1921-15.057-7.7881-25.064-7.7881-17.086 0-30.066 8.1185-38.94 24.3554-8.874 16.1426-13.311 38.9877-13.311 68.5347 0 12.556.944 24.403 2.832 35.542 1.983 11.14 5.051 20.863 9.204 29.17 4.249 8.402 9.629 14.963 16.143 19.683 6.514 4.626 14.538 6.939 24.072 6.939 9.346 0 17.37-2.361 24.073-7.081 6.702-4.72 12.036-11.186 16.001-19.399zm292.18-29.595-3.965 64.429h-185.073v-11.045c3.304-.283 7.175-.708 11.611-1.274 4.437-.661 7.364-1.275 8.78-1.841 3.398-1.322 5.758-3.163 7.08-5.523 1.321-2.36 1.982-5.38 1.982-9.062v-141.7433c0-3.3984-.519-6.1832-1.557-8.3545-1.039-2.2656-3.54-4.2952-7.505-6.0888-2.927-1.3217-6.467-2.3601-10.62-3.1153-4.06-.8496-7.316-1.4632-9.771-1.8408v-11.04492h110.308v11.04492c-3.021.2832-6.608.708-10.762 1.2744-4.059.472-7.599 1.18-10.62 2.124-3.682 1.2273-6.136 3.1625-7.363 5.8057-1.228 2.5488-1.841 5.4753-1.841 8.7793v132.1143c0 6.23.425 11.139 1.274 14.727.85 3.587 2.502 6.23 4.956 7.929 2.455 1.794 5.853 2.974 10.196 3.54 4.436.472 10.525.708 18.266.708 7.552 0 14.868-.425 21.948-1.274 7.175-.944 12.32-2.927 15.435-5.947 4.814-4.815 9.723-11.565 14.727-20.249 5.097-8.78 9.156-16.804 12.177-24.073zm205.238-115.8298c12.272 8.0241 22.184 18.7386 29.736 32.1436 7.552 13.3105 11.328 29.6419 11.328 48.9942 0 16.992-3.398 31.813-10.195 44.463-6.703 12.555-15.624 22.845-26.763 30.869-11.328 8.024-24.214 14.018-38.657 17.983-14.349 3.871-29.406 5.806-45.171 5.806h-101.245v-11.045c3.021-.094 6.797-.378 11.328-.85s7.552-1.038 9.062-1.699c3.399-1.416 5.759-3.304 7.08-5.664 1.322-2.454 1.983-5.381 1.983-8.779v-142.4513c0-3.2096-.614-6.0888-1.841-8.6377-1.227-2.6432-3.634-4.7672-7.222-6.372-3.587-1.6049-7.41-2.6905-11.469-3.2569-3.965-.5664-7.033-.944-9.204-1.1328v-11.04492h106.909c11.422 0 23.647 1.46322 36.674 4.38962 13.028 2.9265 25.583 8.3545 37.667 16.2842zm-28.887 144.0088c4.625-7.552 7.977-16.52 10.053-26.904 2.172-10.479 3.257-22.515 3.257-36.109 0-13.3102-1.416-25.4408-4.248-36.3913s-6.985-20.2962-12.461-28.0371c-5.475-7.7409-12.319-13.7354-20.532-17.9834-8.118-4.2481-17.37-6.3721-27.754-6.3721-3.304 0-7.08.0944-11.328.2832-4.154.0944-7.269.1888-9.346.2832v152.5045c0 3.399.425 6.42 1.275 9.063.944 2.549 2.501 4.814 4.673 6.797 2.171 1.982 4.814 3.54 7.929 4.673 3.21 1.038 7.364 1.557 12.461 1.557 10.668 0 19.824-1.982 27.471-5.947 7.646-3.965 13.83-9.771 18.55-17.417zm416.141-45.454c-2.93.283-5.52.614-7.79.991-2.27.378-5.1 1.133-8.5 2.266-3.87 1.227-6.42 3.257-7.64 6.089-1.23 2.832-1.84 5.805-1.84 8.92v23.365c0 4.72.04 8.543.14 11.469.09 2.833.23 6.373.42 10.621-9.44 5.664-23.41 10.997-41.91 16.001-18.41 5.003-35.35 7.504-50.84 7.504-14.53 0-28.18-2.218-40.92-6.655s-23.93-11.092-33.56-19.966c-9.63-8.779-17.23-19.682-22.8-32.71-5.47-13.027-8.21-27.942-8.21-44.746 0-15.6703 2.6-30.1608 7.79-43.4714 5.19-13.3105 12.7-24.7802 22.51-34.4091 9.63-9.5346 21.34-16.8978 35.12-22.08989 13.88-5.19206 29.22-7.788087 46.02-7.788087 11.42 0 22 1.416017 31.72 4.248047 9.72 2.73763 17.75 5.71123 24.07 8.92093l8.78-7.78812h12.32l1.27 73.34962h-12.46c-7.17-21.9955-15.76-38.3268-25.77-48.9941-10-10.6674-22.65-16.001-37.95-16.001-18.12 0-32.14 7.9297-42.05 23.789-9.82 15.8594-14.73 37.7133-14.73 65.5611 0 29.548 4.82 52.676 14.44 69.385 9.73 16.709 23.46 25.064 41.21 25.064 8.31 0 15.67-1.228 22.09-3.682 6.51-2.549 11.56-5.475 15.15-8.779v-40.781c0-3.399-.61-6.231-1.84-8.497-1.23-2.36-3.68-4.389-7.36-6.088-2.83-1.322-6.37-2.408-10.62-3.257-4.25-.85-7.79-1.463-10.62-1.841v-11.045h104.36zm237.1-108.1837c-3.4.3776-6.52.9912-9.35 1.8408s-5.52 2.0296-8.07 3.5401c-4.06 2.2656-7.7 5.192-10.91 8.7793-3.11 3.4928-6.18 7.4104-9.2 11.7529-6.14 8.9681-12.6 18.7386-19.4 29.3115-6.7 10.4785-14.02 22.0427-21.95 34.6921-5.19 8.024-8.4 14.208-9.63 18.55-1.13 4.248-1.7 11.659-1.7 22.232v28.461c0 3.399.62 6.373 1.85 8.921 1.32 2.549 3.77 4.626 7.36 6.231 1.6.661 5 1.557 10.19 2.69 5.2 1.039 9.02 1.652 11.47 1.841v11.045h-112v-11.045c2.64-.189 6.42-.566 11.33-1.133 5-.566 8.49-1.227 10.47-1.982 3.5-1.511 5.86-3.493 7.08-5.947 1.33-2.549 1.99-5.617 1.99-9.205v-35.4c0-3.115-.05-5.853-.15-8.213-.09-2.36-.42-4.342-.99-5.947-.66-1.794-1.79-4.059-3.39-6.797-1.61-2.832-3.69-6.466-6.24-10.903-7.26-12.7444-14.3-24.8277-21.09-36.2503-6.8-11.4225-13.27-22.137-19.4-32.1435-3.21-5.1921-6.47-9.3457-9.77-12.461-3.21-3.2096-6.52-5.8056-9.92-7.788-2.54-1.4161-5.66-2.5017-9.34-3.2569-3.59-.7552-6.85-1.2272-9.77-1.416v-11.04492h115.12v11.04492c-10.57.2832-17.7 1.0384-21.38 2.2656-3.68 1.1328-5.52 2.7377-5.52 4.8145 0 1.0384.66 3.1152 1.98 6.2305 1.41 3.1152 3.87 7.9296 7.36 14.4433 3.21 6.1361 7.88 14.585 14.02 25.3467 6.23 10.7617 13.69 23.3642 22.37 37.8081 17.94-28.4152 30.26-48.2394 36.96-59.4731 6.7-11.3282 10.05-18.2667 10.05-20.8155 0-3.2096-1.98-5.664-5.94-7.3633-3.87-1.6992-10.2-2.7848-18.98-3.2568v-11.04492h74.49zm290.9 189.8877h-108.89v-11.045c3.21-.283 7.13-.755 11.75-1.416 4.72-.661 7.93-1.369 9.63-2.124 3.49-1.416 6-3.351 7.51-5.806 1.51-2.454 2.26-5.569 2.26-9.345v-150.098l-69.1 176.577h-17.84c-.85-3.115-2.97-9.298-6.37-18.55-3.31-9.251-6-16.661-8.07-22.231l-50.84-138.0616v122.2026c0 11.705.76 20.626 2.27 26.762 1.6 6.042 4.15 10.479 7.64 13.311 2.36 1.982 6.56 3.87 12.61 5.664 6.13 1.793 10.43 2.832 12.88 3.115v11.045h-86.38v-11.045c2.36-.283 6.19-.897 11.47-1.841 5.38-1.038 9.77-2.785 13.17-5.239 3.78-2.643 6.33-7.08 7.65-13.311 1.32-6.324 1.98-15.293 1.98-26.904v-99.5457c0-6.0417-.75-11.045-2.26-15.0098-1.51-4.0593-3.78-7.2689-6.8-9.6289-3.78-2.9264-7.65-4.8145-11.61-5.6641-3.97-.8496-7.98-1.416-12.04-1.6992v-11.04492h92.47l49.56 132.68062 41.77-107.7587c1.42-3.9649 2.79-8.6849 4.11-14.1602s2.03-9.0625 2.12-10.76172h89.07v11.04492c-3.02.1888-6.19.5664-9.49 1.1328s-6.47 1.3216-9.49 2.2656c-3.68 1.2273-6.13 3.1625-7.36 5.8057-1.13 2.6432-1.7 5.5697-1.7 8.7793v142.3093c0 3.399.57 6.278 1.7 8.638 1.23 2.266 3.68 4.248 7.36 5.947 1.89.85 4.96 1.652 9.21 2.407 4.34.756 7.69 1.275 10.05 1.558z" fill="#fff"/></svg>