<svg width="18" height="6" viewBox="0 0 18 6" fill="none" xmlns="http://www.w3.org/2000/svg">
<path fill-rule="evenodd" clip-rule="evenodd" d="M14.5537 0.0347932C14.5119 0.0534891 14.4501 0.116201 14.4163 0.174214C14.2875 0.395106 14.2989 0.409071 15.5484 1.56274L16.6967 2.62299L8.47428 2.6393C-0.591615 2.65728 0.152006 2.63777 0.0374419 2.86078C-0.0353305 3.00235 -0.00134649 3.13724 0.133495 3.24204L0.23958 3.32449H8.46795C12.9936 3.32449 16.6963 3.33523 16.6963 3.34831C16.6963 3.36143 16.1717 3.85747 15.5305 4.45065C14.4762 5.42607 14.3647 5.53932 14.3647 5.63567C14.3647 5.85715 14.5204 6 14.7617 6C14.8608 6 15.0369 5.84949 16.3938 4.60515C17.2303 3.83799 17.9341 3.18093 17.9578 3.14504C18.0158 3.05717 18.014 2.94809 17.9527 2.8416C17.8915 2.73529 15.0156 0.0837354 14.9058 0.0324766C14.8112 -0.0117019 14.6554 -0.0106905 14.5537 0.0347932Z" fill="#fff"/>
</svg>
