<svg fill="none" height="6" viewBox="0 0 18 6" width="18" xmlns="http://www.w3.org/2000/svg"><path clip-rule="evenodd" d="m14.5537.0347932c-.0418.0186959-.1036.0814078-.1374.1394208-.1288.220892-.1174.234857 1.1321 1.388526l1.1483 1.06025-8.22242.01631c-9.065895.01798-8.322274-.00153-8.4368381.22148-.0727724.14157-.03878839.27646.0960531.38126l.106085.08245h8.22837c4.52565 0 8.22835.01074 8.22835.02382 0 .01312-.5246.50916-1.1658 1.10234-1.0543.97542-1.1658 1.08867-1.1658 1.18502 0 .22148.1557.36433.397.36433.0991 0 .2752-.15051 1.6321-1.39485.8365-.76716 1.5403-1.42422 1.564-1.46011.058-.08787.0562-.19695-.0051-.30344-.0612-.10631-2.9371-2.7578646-3.0469-2.8091234-.0946-.0441785-.2504-.0431671-.3521.0023166z" fill="#fff" fill-rule="evenodd"/></svg>