<svg fill="none" height="10" viewBox="0 0 30 10" width="30" xmlns="http://www.w3.org/2000/svg"><path clip-rule="evenodd" d="m24.2562.0579886c-.0697.0311599-.1728.1356794-.2291.2323674-.2147.368154-.1957.391429 1.8868 2.314204l1.914 1.76709-13.7041.02719c-15.109826.02996-13.870457-.00256-14.0613968.36913-.1212874.23595-.06464736.46076.1600878.63543l.176809.13742h13.714c7.5426 0 13.7139.01789 13.7139.0397 0 .02186-.8744.8486-1.943 1.83724-1.7573 1.62569-1.943 1.81445-1.943 1.97503 0 .36913.2595.60721.6617.60721.1651 0 .4586-.25086 2.72-2.32475 1.3942-1.27859 2.5673-2.3737 2.6068-2.43352.0966-.14645.0936-.32824-.0086-.50574-.1019-.17717-4.8952-4.596431-5.0781-4.6818623-.1576-.0736309-.4173-.0719451-.5868.0038609z" fill="#000" fill-rule="evenodd" opacity=".5"/></svg>