<svg fill="none" height="60" viewBox="0 0 60 60" width="60" xmlns="http://www.w3.org/2000/svg"><circle cx="30" cy="30" fill="#3f60a7" r="30"/><path d="m39.1044 34.4806c-.6318.3958-3.2018.5135-3.8238.0615-.3412-.2477-.6532-.558-.9497-.853-.207-.2065-.4425-.3067-.6205-.5307-.145-.1835-.2448-.3998-.398-.5803-.2583-.3037-.6563-.562-.9713-.191-.4737.5578.0748 1.6543-.5572 2.0713-.212.14-.4258.1805-.6905.1605l-.5865.0267c-.3448.0068-.8905.0098-1.2823-.061-.4375-.0787-.7982-.3177-1.1932-.4932-.7505-.3328-1.4658-.7863-2.0098-1.4145-1.4805-1.7108-3.4692-4.0638-4.2417-6.2148-.1593-.442-.5785-1.3167-.1808-1.696.541-.393 3.1973-.5042 3.6113.104.1685.2468.2745.609.3935.8888.148.349.2285.6782.46.9872.205.2743.3565.5498.5152.8505.1783.3373.3463.6608.563.9715.147.2113.5358.631.7813.6625.5995.0768.562-1.3802.5175-1.7362-.0425-.3428-.0538-.7063-.0425-1.054.0097-.2965.0365-.7143-.1393-.9565-.2862-.395-.9237-.0993-.9737-.63.1055-.1508.083-.2845.7865-.516.5537-.1823.9115-.1765 1.2767-.1473.745.0598 1.5348-.142 2.2535.0995.6865.2313.5805 1.207.5575 1.792-.0307.7988.002 1.578 0 2.3883-.001.3692-.0155.728.434.6982.422-.0282.4648-.383.666-.676.2803-.4082.537-.822.8223-1.229.3842-.5497.5-1.1675.8617-1.7307.1295-.2018.2408-.642.44-.8013.151-.1202.4375-.0687.62-.0687h.434c.3325.004.6715.0087 1.0128.0207.4917.017 1.0425-.0897 1.5302-.021 2.104.297-2.6445 4.7978-2.3975 5.6008.171.5545 1.254 1.1757 1.645 1.6302.5213.6045 2.119 1.8093.8763 2.587z" fill="#fff"/></svg>