<svg fill="none" height="60" viewBox="0 0 60 60" width="60" xmlns="http://www.w3.org/2000/svg"><circle cx="30" cy="30" fill="#00aff0" r="30"/><path clip-rule="evenodd" d="m34.8691 36.8454c.2254.1596.5159.1995.7749.1015.259-.0987.4494-.3199.5068-.588.6083-2.8588 2.0839-10.0947 2.6376-12.6952.042-.196-.028-.3997-.182-.5306s-.3675-.1687-.5579-.098c-2.9351 1.0864-11.9742 4.4779-15.6688 5.845-.2345.0868-.3871.3122-.3794.5593.0084.2478.175.4627.4151.5348 1.6569.4956 3.8318 1.1851 3.8318 1.1851s1.0164 3.0695 1.5463 4.6305c.0665.196.2198.35.4221.4032.2016.0525.4172-.0028.5677-.1449.8512-.8036 2.1672-2.0461 2.1672-2.0461s2.5004 1.8333 3.9186 2.8434zm-7.707-6.0739 1.1753 3.8766.2611-2.4549s4.5409-4.0957 7.1295-6.4302c.0756-.0686.0861-.1834.0231-.2639-.0623-.0805-.1771-.0994-.2632-.0448-3.0002 1.9159-8.3258 5.3172-8.3258 5.3172z" fill="#fff" fill-rule="evenodd"/></svg>