<svg fill="none" height="28" viewBox="0 0 24 28" width="24" xmlns="http://www.w3.org/2000/svg"><g fill="#b8a60a"><path d="m1.91003.179759 21.05447 12.670741c.8487.5108.8487 1.7882 0 2.299l-21.05447 12.6707c-.84872.5109-1.91003-.1278-1.91003-1.1494v-25.34158c0-1.021616 1.06077-1.660269 1.91003-1.149461z"/><path d="m22.9645 12.8507-21.05445-12.670822c-.12701-.076138-.25838-.1193215-.39029-.1471632l20.35454 12.2497852c.8488.5108.8488 1.7881 0 2.2989l-21.054452 12.6708c-.19024.1142-.390293.1636-.587619.171.357586.533 1.068941.7631 1.677821.3972l21.05445-12.6708c.8488-.5108.8488-1.7881 0-2.2989z"/><path d="m1.91003.179759 21.05447 12.670741c.8487.5108.8487 1.7882 0 2.299l-21.05447 12.6707c-.84872.5109-1.91003-.1278-1.91003-1.1494v-25.34158c0-1.021616 1.06077-1.660269 1.91003-1.149461z"/></g></svg>