<svg fill="none" height="60" viewBox="0 0 60 60" width="60" xmlns="http://www.w3.org/2000/svg"><circle cx="30" cy="30" fill="#1ec03b" r="30"/><path d="m23 37 1.0544-3.8519c-.6507-1.1275-.9925-2.4056-.9919-3.7162.0019-4.0975 3.3363-7.4319 7.4331-7.4319 1.9882.0006 3.8544.775 5.2582 2.18 1.4031 1.405 2.1756 3.2725 2.175 5.2588-.0019 4.0981-3.3363 7.4325-7.4332 7.4325-1.2437-.0007-2.4694-.3125-3.555-.905zm4.1231-2.3794c1.0475.6219 2.0475.9944 3.37.995 3.405 0 6.1788-2.7712 6.1807-6.1781.0012-3.4138-2.7594-6.1813-6.1757-6.1825-3.4075 0-6.1793 2.7713-6.1806 6.1775-.0006 1.3906.4069 2.4319 1.0913 3.5212l-.6244 2.28zm7.1169-3.415c-.0462-.0775-.17-.1237-.3562-.2169-.1857-.0931-1.0988-.5425-1.2694-.6043-.17-.0619-.2938-.0931-.4182.0931-.1237.1856-.48.6044-.5881.7281-.1081.1238-.2169.1394-.4025.0463s-.7844-.2888-1.4937-.9219c-.5519-.4925-.925-1.1006-1.0332-1.2869-.1081-.1856-.0112-.2862.0813-.3787.0837-.0831.1856-.2169.2787-.3256.0944-.1075.125-.185.1875-.3094.0619-.1238.0313-.2325-.0156-.3256-.0468-.0925-.4181-1.0069-.5725-1.3788-.1512-.3619-.3043-.3131-.4181-.3188l-.3562-.0062c-.1238 0-.3251.0462-.4951.2325-.17.1862-.65.635-.65 1.5494s.6657 1.7975.7582 1.9212c.0931.1238 1.3093 2 3.1725 2.8044.4431.1913.7893.3056 1.0587.3912.445.1413.85.1213 1.17.0738.3569-.0531 1.0988-.4494 1.2538-.8831.155-.4344.155-.8063.1081-.8838z" fill="#fff"/></svg>