<svg fill="none" height="20" viewBox="0 0 18 20" width="18" xmlns="http://www.w3.org/2000/svg"><g stroke="#d7d7d7" stroke-linecap="round" stroke-linejoin="round"><path clip-rule="evenodd" d="m9 18.0429c-4.1425 0-7.5-3.4782-7.5-7.7696 0-4.29145 3.3575-7.76964 7.5-7.76964 4.1425 0 7.5 3.47819 7.5 7.76964 0 4.2914-3.3575 7.7696-7.5 7.7696z" fill-rule="evenodd"/><path d="m10.1932 6.90027c.6591.6827.6591 1.78957 0 2.47227-.65897.68266-1.72743.68266-2.38644 0-.65901-.6827-.65901-1.78957 0-2.47227s1.72747-.6827 2.38644 0"/><path d="m12.2403 13.8014c-.1658-1.0791-1.0613-1.9058-2.1488-1.9058h-2.18396c-1.08825 0-1.983.8267-2.14875 1.9058"/></g></svg>