<svg fill="none" height="60" viewBox="0 0 60 60" width="60" xmlns="http://www.w3.org/2000/svg"><circle cx="30" cy="30" fill="#7b509f" r="30"/><path clip-rule="evenodd" d="m30.6698 30.5906s.2669.0238.41-.1543l.28-.3519c.135-.175.4612-.2862.7806-.1087.4225.2387.9687.6137 1.3431.9631.2063.1737.2544.43.1138.7006l-.0013.0056c-.145.255-.3381.4944-.5825.7175l-.0056.0037c-.275.2294-.5912.3625-.9294.2525l-.0062-.0087c-.6075-.1719-2.065-.915-2.9937-1.6556-1.5194-1.1987-2.5993-3.1762-2.8981-4.2362l-.0094-.0062c-.11-.3394.0244-.6557.2525-.93l.0044-.005c.2231-.2444.4619-.4382.7175-.5825l.0056-.0013c.27-.1406.5263-.0931.7006.1138.2294.2368.66.8068.9625 1.3431.1775.3187.0663.6456-.1081.78l-.3525.28c-.1775.1437-.1544.4106-.1544.4106s.5213 1.9724 2.4706 2.4699zm3.0668-1.6349c-.1043 0-.1893-.0844-.19-.1888-.0087-1.1437-.3525-2.0549-1.0212-2.7074-.67-.6532-1.5168-.9881-2.5168-.995-.105-.0006-.1894-.0863-.1882-.1913.0007-.1043.085-.1881.1894-.1881h.0013c1.1012.0075 2.0362.3788 2.7793 1.1025.7437.7262 1.1262 1.7281 1.1356 2.9768.0006.1044-.0831.19-.1881.1913zm-.9968-.39h-.0044c-.105-.0025-.1881-.0894-.1856-.1938.015-.6487-.1706-1.1737-.5663-1.6056-.3937-.4306-.9343-.6656-1.6531-.7181-.1043-.0081-.1831-.0987-.1756-.2031.0081-.1044.0988-.1831.2031-.1756.8088.0593 1.45.3425 1.9056.8406.4582.5.6825 1.1293.6657 1.87-.0025.1031-.0869.1856-.1894.1856zm-.9738-.3263c-.1006 0-.1843-.0787-.1893-.1806-.0319-.6437-.3356-.9587-.9544-.9925-.105-.0056-.185-.095-.1794-.1993.0057-.105.0944-.185.1994-.1794.8175.0437 1.2712.5118 1.3131 1.3525.0056.1043-.075.1937-.18.1987zm4.2606 2.1681c-.3781 3.0481-2.6075 3.2406-3.0187 3.3725-.175.0562-1.8012.4606-3.8449.3275 0 0-1.5238 1.8374-1.9994 2.3155-.0744.0744-.1612.1044-.22.0907-.0819-.02-.1044-.1175-.1031-.2588l.0125-2.5099v-.0007c-2.9762-.8268-2.8031-3.9343-2.7693-5.5611.0337-1.6269.3393-2.96 1.2474-3.8562 1.6313-1.4775 4.9918-1.2569 4.9918-1.2569 2.8381.0125 4.1981.8669 4.5137 1.1531 1.0469.8963 1.58 3.0419 1.19 6.1843zm-.4075-6.9455c-.3731-.3425-1.8793-1.4362-5.2343-1.4512 0 0-3.9562-.2388-5.8849 1.5312-1.0737 1.0737-1.4512 2.6443-1.4912 4.5924-.0394 1.9487-.0913 5.5987 3.4274 6.5887l.0038.0012-.0025 1.51s-.0219.6119.3806.7369c.4869.1506.7725-.3138 1.2381-.815.255-.275.6069-.6788.8731-.9875 2.4069.2012 4.2574-.2606 4.4681-.3288.4856-.1581 3.2355-.5099 3.683-4.1605.4613-3.7637-.2237-6.1437-1.4612-7.2174z" fill="#fff" fill-rule="evenodd"/></svg>