<svg width="18" height="20" viewBox="0 0 18 20" fill="none" xmlns="http://www.w3.org/2000/svg">
<path fill-rule="evenodd" clip-rule="evenodd" d="M9 18.0429V18.0429C4.8575 18.0429 1.5 14.5647 1.5 10.2733V10.2733C1.5 5.98185 4.8575 2.50366 9 2.50366V2.50366C13.1425 2.50366 16.5 5.98185 16.5 10.2733V10.2733C16.5 14.5647 13.1425 18.0429 9 18.0429Z" stroke="#D7D7D7" stroke-linecap="round" stroke-linejoin="round"/>
<path d="M10.1932 6.90027C10.8523 7.58297 10.8523 8.68984 10.1932 9.37254C9.53423 10.0552 8.46577 10.0552 7.80676 9.37254C7.14775 8.68984 7.14775 7.58297 7.80676 6.90027C8.46577 6.21757 9.53423 6.21757 10.1932 6.90027" stroke="#D7D7D7" stroke-linecap="round" stroke-linejoin="round"/>
<path d="M12.2403 13.8014C12.0745 12.7223 11.179 11.8956 10.0915 11.8956H7.90754C6.81929 11.8956 5.92454 12.7223 5.75879 13.8014" stroke="#D7D7D7" stroke-linecap="round" stroke-linejoin="round"/>
</svg>
