<svg fill="none" height="20" viewBox="0 0 18 20" width="18" xmlns="http://www.w3.org/2000/svg" xmlns:xlink="http://www.w3.org/1999/xlink"><clipPath id="a"><path d="m0 .949768h18v18.647h-18z"/></clipPath><g clip-path="url(#a)" stroke="#d7d7d7" stroke-linecap="round" stroke-linejoin="round"><path d="m14.2234 13.8549-.8797-.9114c-.4395-.4553-1.152-.4553-1.5908 0l-.6915.7164c-.1545.16-.3885.2137-.588.1228-1.002-.4546-1.992-1.1437-2.87475-2.0582-.879-.9106-1.542-1.93154-1.9815-2.96567-.0915-.21366-.03825-.46462.1215-.63011l.6195-.64177c.50325-.52134.50325-1.25868.06375-1.71398l-.87975-.91137c-.58575-.60681-1.53525-.60681-2.121 0l-.489.5058c-.55575.57573-.7875 1.4063-.6375 2.22988.3705 2.03019 1.509 4.25312 3.34575 6.15582 1.83675 1.9028 3.9825 3.0822 5.9423 3.4661.795.1553 1.5967-.0847 2.1524-.6605l.4883-.5058c.5858-.6068.5858-1.5904 0-2.198z"/><path d="m9.75 6.38121c.7733-.01088 1.5503.28592 2.1405.89739"/><path d="m14.0115 5.08147c-1.1768-1.21905-2.7195-1.82897-4.2615-1.82897"/><path d="m12.7569 9.49631c.0105-.80104-.276-1.60597-.8663-2.21744"/><path d="m14.0107 5.0816c1.1768 1.21905 1.7655 2.81726 1.7655 4.41469"/></g></svg>