<svg width="200" height="200" viewBox="0 0 200 200" fill="none" xmlns="http://www.w3.org/2000/svg">
<g clip-path="url(#clip0_124_154)">
<path d="M116.05 198.679C170.565 189.83 207.585 138.463 198.736 83.9483C189.887 29.4333 138.52 -7.58622 84.0052 1.2628C29.4903 10.1118 -7.52933 61.4785 1.31969 115.993C10.1687 170.508 61.5354 207.528 116.05 198.679Z" fill="#1A1A18"/>
<path d="M166.36 166.348C203.003 129.705 203.003 70.2963 166.36 33.6539C129.718 -2.9884 70.309 -2.9884 33.6667 33.6539C-2.97565 70.2963 -2.9757 129.705 33.6667 166.348C70.309 202.99 129.718 202.99 166.36 166.348Z" fill="#FFEC00"/>
<path d="M99.9999 157.606C131.815 157.606 157.606 131.815 157.606 100C157.606 68.185 131.815 42.3939 99.9999 42.3939C68.1849 42.3939 42.3938 68.185 42.3938 100C42.3938 131.815 68.1849 157.606 99.9999 157.606Z" fill="#1A1A18"/>
<path d="M100 152.732C129.123 152.732 152.732 129.123 152.732 100C152.732 70.877 129.123 47.2681 100 47.2681C70.877 47.2681 47.2681 70.877 47.2681 100C47.2681 129.123 70.877 152.732 100 152.732Z" fill="#FFED00"/>
<path fill-rule="evenodd" clip-rule="evenodd" d="M122.012 126.71C122.81 125.134 123.913 123.731 125.255 122.583C125.55 122.327 125.904 122.229 126.101 121.914L126.218 121.678C126.729 120.519 127.142 120.696 127.378 119.713C127.614 118.73 127.123 116.883 129.127 116.411C132.862 115.527 131.25 118.2 131.191 118.377C131.034 118.927 131.191 118.789 130.896 119.241C129.999 120.462 128.837 121.464 127.496 122.17C126.727 122.624 126.003 123.15 125.334 123.742C125.059 124.057 125.098 124.234 124.823 124.528C124.413 124.939 123.98 125.326 123.526 125.688C123.29 125.924 122.523 126.69 122.012 126.73V126.71ZM84.6697 105.503V112.756C83.1564 113.267 81.4464 113.601 79.9331 113.994L77.496 114.603C74.1155 115.389 78.2232 115.625 73.0541 116.136H72.6218C72.0911 116.254 72.4056 116.136 72.209 116.333C71.986 117.086 71.9523 117.882 72.1108 118.652C72.2287 118.888 84.6501 124.332 85.9669 124.941C87.2837 125.55 87.382 125.275 88.6595 124.941C89.426 124.725 90.6249 124.43 91.2538 124.155C91.3128 123.226 91.3128 122.293 91.2538 121.364L87.0086 122.032V104.579C87.0086 103.931 88.463 102.732 88.8168 101.769L105.935 106.23C104.461 106.918 90.7036 110.515 89.2492 110.908V112.539C91.0166 112.149 92.7618 111.663 94.4771 111.085L104.972 108.117C106.663 107.645 108.903 106.564 110.082 107.626L89.2492 114.741V117.394C90.4284 117.256 109.788 110.495 112.991 109.434C114.112 109.041 114.072 108.825 115.291 109.237C116.509 109.65 123.742 111.891 124.253 111.851V109.748C123.487 109.218 112.854 106.329 110.358 105.582C109.847 105.425 108.707 105.346 108.51 104.815C108.726 104.422 109.277 104.481 109.807 104.363L114.229 103.282C115.567 103.018 116.801 102.377 117.787 101.435C118.272 101.229 118.78 101.084 119.3 101.002C119.743 101.365 120.259 101.627 120.814 101.769C121.012 102.313 121.17 102.872 121.285 103.439C121.464 103.966 121.708 104.468 122.012 104.933C122.28 105.399 122.648 105.8 123.09 106.106C123.532 106.412 124.037 106.616 124.568 106.702C124.666 108.667 124.843 110.299 125.098 112.186C125.535 113.913 125.495 115.727 124.98 117.433C122.622 118.278 121.226 120.794 120.106 122.131C119.562 122.747 119.165 123.48 118.946 124.273C118.435 125.491 117.335 128.341 118.848 129.186C119.75 129.558 120.742 129.654 121.698 129.462C121.954 129.462 122.347 128.872 122.524 128.675C123.152 128.027 122.759 128.086 123.074 127.575C123.388 127.064 124.332 126.848 124.803 126.513C126.433 125.264 127.958 123.884 129.363 122.386C130.912 120.924 132.062 119.091 132.704 117.06C132.921 116.274 133.117 115.468 133.373 114.819C133.576 114.776 133.786 114.781 133.987 114.832C134.188 114.883 134.374 114.979 134.532 115.114C134.532 116.47 133.726 117.079 133.097 118.141C132.154 119.634 132.468 120.106 132.606 121.895C133.64 121.954 134.677 121.954 135.711 121.895C137.441 121.895 139.976 122.465 141.608 121.718C142.63 121.226 142.531 120.519 142.512 119.359C141.858 118.962 141.158 118.645 140.428 118.416C139.78 118.259 139.76 118.416 139.229 118.082C137.028 116.608 137.913 119.851 134.532 118.907C134.337 118.259 134.378 117.562 134.65 116.942L135.318 115.409C137.637 115.252 139.878 116.785 142.099 117.158C142.494 117.269 142.912 117.277 143.311 117.181C143.71 117.084 144.078 116.887 144.379 116.608C146.128 115.502 147.733 114.181 149.155 112.677C149.607 112.205 149.45 110.888 149.41 110.063C148.241 110.665 147.135 111.382 146.108 112.205C145.558 112.618 145.086 112.952 144.516 113.424C144.24 113.614 143.989 113.838 143.77 114.092C143.667 114.234 143.523 114.34 143.358 114.396C143.192 114.452 143.013 114.456 142.846 114.406C141.883 114.23 134.395 112.343 134.041 112.087C134.041 112.087 134.041 111.969 134.041 111.989C134.04 111.134 134.146 110.282 134.355 109.454C134.607 108.569 134.759 107.66 134.807 106.741C135.436 106.859 136.773 107.547 137.677 107.783C138.771 108.086 139.902 108.238 141.038 108.235L143.475 105.562C144.595 103.793 144.104 103.381 143.278 101.926C140.605 97.1699 136.733 94.7131 133.117 90.9985L130.365 88.4827C129.488 87.5485 128.374 86.8694 127.142 86.5173C127.119 86.3519 127.14 86.1834 127.202 86.0283C127.264 85.8733 127.365 85.737 127.496 85.6329C128.361 84.8467 129.009 86.7532 131.152 87.5983C132.075 87.9899 133.083 88.1395 134.08 88.0329C135.078 87.9263 136.032 87.567 136.851 86.989C139.367 84.7288 139.583 79.2846 138.306 75.4914C137.742 73.8373 136.792 72.3415 135.535 71.1282C134.89 70.4371 134.099 69.8992 133.219 69.5538C132.34 69.2084 131.394 69.0644 130.452 69.1323C129.509 69.2001 128.594 69.4781 127.773 69.946C126.952 70.4138 126.246 71.0595 125.707 71.8357C124.547 73.5676 124.07 75.6688 124.371 77.732H123.545V78.5574H124.98C124.98 78.8915 124.98 79.2257 124.98 79.5598C115.814 79.9691 106.703 81.2058 97.7593 83.2548C97.5038 82.901 97.5235 82.8617 97.327 82.5865C97.1304 82.3114 97.0518 82.1541 96.4229 82.0558C95.1454 81.8789 95.165 82.0559 94.5951 81.1125C89.6226 80.7783 89.8781 82.1541 90.4677 85.1415C90.6352 86.0445 90.6352 86.9705 90.4677 87.8735C91.1163 88.3452 90.9983 88.4238 91.0573 89.4065C93.0227 89.9372 91.0573 90.5661 92.8458 91.3719C92.9441 92.2563 92.6493 92.1974 93.4551 92.5904C93.6123 93.6125 93.1799 93.809 93.9464 94.379C94.3274 94.7562 94.6517 95.1865 94.9095 95.6565C96.8749 98.4277 100.983 101.553 101.513 102.712L89.5832 99.6659C89.5832 99.2925 90.0156 97.4057 90.0746 96.6981C90.6522 90.7157 89.1983 84.7131 85.9472 79.658C82.4684 73.8797 73.9779 67.3349 67.4331 71.4623C72.4842 70.971 78.7932 74.0763 82.7829 80.6997C85.7507 85.6329 90.2122 101.179 83.8246 105.523H84.5125L84.6697 105.503ZM77.1226 116.45C79.6334 115.657 82.1857 115.001 84.768 114.485V119.025C82.7271 118.623 80.7458 117.963 78.8718 117.06C78.2545 116.871 77.6504 116.641 77.0636 116.372L77.1226 116.45ZM104.501 95.9317C107.429 95.9317 107.115 96.3837 107.803 96.7178C109.296 97.4647 112.382 97.3664 112.972 98.6832C112.854 98.8405 112.972 98.6832 112.775 98.8798C112.678 98.9512 112.572 99.0106 112.461 99.0567C110.939 99.8276 109.219 100.122 107.527 99.9018C106.662 99.6691 105.897 99.1583 105.35 98.448C104.803 97.7377 104.504 96.8674 104.501 95.971V95.9317ZM124.843 96.2658C125.118 96.0299 125.02 96.1282 125.413 95.9906C127.712 94.8723 130.132 94.0216 132.626 93.4552C134.139 93.4552 136.93 96.7178 138.522 98.0936C139.799 99.2113 140.923 100.493 141.863 101.906C142.335 102.634 143.121 103.282 142.63 104.285C142.138 105.287 140.664 104.501 140.212 104.285C139.505 103.813 138.758 103.381 138.07 102.909C137.048 102.221 134.984 99.2335 134.139 101.572C133.864 102.339 133.962 106.781 133.549 108.039C133.404 108.992 133.12 109.919 132.704 110.79L131.997 111.282C131.728 111.465 131.419 111.583 131.096 111.626C130.773 111.669 130.445 111.636 130.137 111.529C129.829 111.422 129.551 111.244 129.324 111.01C129.098 110.776 128.929 110.492 128.832 110.181C128.321 107.881 128.832 105.405 128.361 104.285C128.249 103.982 128.104 103.692 127.928 103.42C127.809 103.099 127.711 102.771 127.634 102.437C127.319 101.356 126.356 99.7249 126.553 98.5063C127.339 98.5063 129.579 98.7422 130.051 98.3688C130.051 97.6809 130.149 98.0739 129.776 97.7988C129.573 97.664 129.346 97.5705 129.108 97.5236C128.114 97.4262 127.14 97.1811 126.218 96.7964C124.862 96.3443 125.57 96.9536 124.843 96.2461V96.2658ZM106.584 94.3986C106.289 92.2956 110.2 88.7382 111.34 88.1093C113.978 86.5341 117.016 85.7559 120.086 85.8687C121.702 85.593 123.364 85.8482 124.823 86.596C125.194 86.7945 125.591 86.94 126.002 87.0283C127.579 87.6249 129.008 88.5571 130.189 89.7603C132.154 91.7257 130.877 92.217 128.557 92.9245C126.721 93.5344 124.823 93.9366 122.897 94.1235C123.015 93.9662 122.897 94.1235 123.074 93.9466L124.253 93.3176C128.97 90.9198 124.155 87.7948 117.767 88.9937C115.777 89.6244 113.914 90.6026 112.264 91.8829C111.832 92.1384 111.36 92.3546 110.888 92.6297C110.417 92.9049 110.161 93.2784 109.67 93.5339C109.178 93.7894 108.471 93.5339 108.058 94.0252C107.902 94.2539 107.664 94.414 107.394 94.4725C107.123 94.531 106.84 94.4834 106.604 94.3396L106.584 94.3986ZM93.1013 86.1636C93.4551 86.0653 94.3002 85.9866 94.536 85.8687C94.7719 85.7508 94.5361 85.6722 95.0667 85.4363C95.5974 85.2005 95.3419 85.4364 95.6957 85.2398C96.0495 85.0433 96.4229 83.5692 97.2877 83.5692C97.5049 83.9249 97.6115 84.3372 97.594 84.7536C97.5765 85.17 97.4357 85.5718 97.1894 85.9081C96.942 86.195 96.7429 86.5203 96.5998 86.8711C96.5998 87.048 94.6343 88.8365 93.5533 88.2469C92.9244 87.9128 92.8262 87.0284 93.1013 86.1636V86.1636ZM98.1328 89.5441C98.0056 88.9171 97.8348 88.2998 97.6218 87.6966C97.4842 87.4214 96.757 87.1856 97.6218 86.026C97.8379 85.6919 97.9755 85.6919 98.0738 85.3381C98.1721 84.9843 98.0738 84.7485 98.4865 84.5323C102.024 82.7634 122.897 80.4049 125.295 80.6014L125.196 81.5252H128.38L128.518 84.4143L124.587 83.8051L123.526 85.1612C117.492 85.2791 115.251 84.6699 110.849 87.6376C108.455 89.0191 106.63 91.2064 105.7 93.809C105.365 95.0275 105.13 94.3986 103.479 95.3813C103.262 96.5605 103.695 97.4843 103.125 98.6439C102.85 99.1942 101.828 100.138 100.943 99.8428C101.494 99.6579 101.975 99.3115 102.326 98.8487C102.677 98.3859 102.88 97.8283 102.909 97.2485C103.164 94.8507 102.752 95.1062 100.727 95.0079C100.661 94.2971 100.403 93.6177 99.9803 93.0425L98.8403 91.4898C97.3269 91.4898 98.29 92.9442 95.6367 92.9245L96.3639 92.5118C98.4473 91.6863 96.3639 89.7209 96.4818 87.7162C97.6218 88.07 97.0715 89.1706 98.2114 89.6816L98.1328 89.5441ZM126.258 78.5181C127.894 78.2303 129.55 78.0726 131.211 78.0464V79.3829C129.599 79.7855 127.933 79.9248 126.277 79.7956V78.5181H126.258ZM116.175 131.859C116.608 131.859 117.413 131.859 117.905 131.859C118.396 131.859 118.455 131.545 118.652 130.818L121.167 130.444L120.873 131.564L121.187 131.682H121.285C121.482 131.682 121.285 131.682 121.639 131.682C121.639 133.648 121.403 133.648 122.307 135.24C122.783 136.459 122.912 137.785 122.681 139.072C122.543 141.038 118.907 141.745 117.001 139.957C115.854 138.75 115.195 137.16 115.153 135.495C114.957 133.432 114.917 134.65 114.642 133.864C114.367 133.078 115.212 131.211 115.527 130.621L117.079 127.811C118.396 129.324 116.215 129.776 116.175 131.741V131.859ZM104.461 93.6911C103.813 96.9143 99.43 93.0622 99.5675 90.5268C100.766 89.7406 100.649 89.4065 102.457 89.4065C103.125 89.4065 104.049 89.6227 104.54 89.4065C105.031 89.1903 105.11 88.581 105.955 88.581L106.152 89.151H106.898C106.997 89.2689 106.898 89.4261 107.272 89.6423H107.449C106.852 90.2513 106.36 90.9553 105.994 91.7257C105.051 93.5928 105.876 93.4356 104.402 93.6911H104.461ZM144.045 109.709C143.632 109.552 143.455 109.296 143.003 109.1C142.563 108.991 142.136 108.84 141.726 108.648L144.005 105.916C144.34 105.405 144.202 105.051 144.399 104.56H144.851C145.204 105.525 145.48 106.518 145.676 107.528C145.774 108.805 144.87 109.316 144.045 109.748V109.709ZM81.3678 80.9159C84.6697 86.3798 89.7994 104.914 79.9331 106.722C79.4749 106.751 79.0155 106.751 78.5573 106.722C84.9842 102.673 80.5227 87.4018 77.7122 82.5669C73.2507 75.1769 65.7822 72.2878 60.6721 74.1156C65.448 69.1235 75.7468 71.4819 81.3678 80.8373V80.9159ZM75.6682 83.5692C78.7735 88.7383 83.6281 106.25 74.2924 107.98C62.4999 109.08 54.6382 96.1871 53.7538 85.6918C52.5353 71.7571 68.2979 71.364 75.6682 83.5692V83.5692ZM56.9378 92.0401C56.5054 92.1974 56.3678 92.9442 56.6626 93.7107C56.9575 94.4773 57.5078 94.9882 57.9598 94.831C58.4119 94.6737 58.5102 93.9073 58.235 93.1408C57.9598 92.3742 57.3702 91.8829 56.9378 92.0401ZM67.8851 91.4701L58.7656 94.949C58.9257 94.6461 59.0093 94.3088 59.0093 93.9663C59.0093 93.6237 58.9257 93.2864 58.7656 92.9836C58.688 92.6483 58.5236 92.3394 58.2891 92.0876C58.0546 91.8358 57.758 91.65 57.4292 91.5488L66.3914 88.4238C66.7066 88.5006 67.0002 88.648 67.2501 88.8548C67.5 89.0616 67.6997 89.3225 67.8341 89.6177C67.9685 89.913 68.0341 90.2349 68.0259 90.5592C68.0177 90.8835 67.936 91.2017 67.7869 91.4898L67.8851 91.4701ZM136.674 87.7162C139.78 87.7162 141.49 75.9238 136.871 70.9906C136.132 70.1873 135.176 69.614 134.119 69.3396C143.337 69.2414 141.647 88.7775 136.674 87.7162V87.7162ZM139.229 87.1266C141.726 85.967 143.416 71.6785 136.832 69.89C144.87 70.6565 142.885 87.8931 139.19 87.1266H139.229Z" fill="#1A1A18"/>
<path fill-rule="evenodd" clip-rule="evenodd" d="M45.3813 27.5354L54.2846 36.4387C51.3541 36.0201 48.3726 36.1266 45.4795 36.7531C42.9217 37.2901 40.5697 38.5444 38.6989 40.3695C37.9824 41.0502 37.4484 41.9002 37.1462 42.8412C36.844 43.7822 36.7832 44.784 36.9693 45.7547C37.5951 48.4429 39.0449 50.8685 41.1163 52.6926C42.7921 54.6555 45.0504 56.0326 47.5628 56.6235C48.4809 56.7607 49.4187 56.6693 50.2929 56.3573C51.1672 56.0453 51.9509 55.5224 52.5747 54.8349C53.3324 54.1109 53.993 53.2917 54.5401 52.3978C55.0991 51.3761 55.3643 50.2197 55.3066 49.0566L54.2256 47.9756L44.3986 48.3098L60.0039 32.7241L60.2005 42.0008L66.6077 48.408L61.8317 49.0566C60.822 52.7605 58.88 56.1438 56.191 58.8837C55.2602 59.8161 54.2545 60.6706 53.1839 61.4387C52.155 62.1857 51.0398 62.806 49.8624 63.2862C47.4919 64.227 44.935 64.6038 42.3938 64.3868C39.1672 64.1569 36.1349 62.7595 33.8639 60.456C32.6142 59.2195 31.6075 57.7595 30.8962 56.1517C30.2712 54.7304 29.8477 53.2287 29.6383 51.6903C29.2012 48.7956 29.5474 45.8367 30.6407 43.121C31.6041 40.7077 33.0561 38.5196 34.9056 36.6942C36.2395 35.3572 37.7789 34.2425 39.4654 33.3923C41.2003 32.5199 43.0906 31.9989 45.0275 31.8593L45.3813 27.5354Z" fill="#1A1A18"/>
<path fill-rule="evenodd" clip-rule="evenodd" d="M74.6658 12.6572C76.4503 12.0234 78.3345 11.7171 80.2279 11.7531C82.2523 11.7863 84.2524 12.1996 86.1241 12.9717C88.0233 13.6873 89.7851 14.7245 91.3325 16.0377C93.1979 17.6582 94.6072 19.7382 95.4205 22.0715C96.5414 25.0757 96.5414 28.3833 95.4205 31.3876C94.3903 33.9939 92.729 36.3036 90.5856 38.1093C88.8638 39.6682 86.8634 40.8884 84.6894 41.7059C83.6215 42.0943 82.5143 42.3645 81.3875 42.5118C80.209 42.6731 79.0188 42.7323 77.8301 42.6887C75.2108 42.5947 72.6512 41.8807 70.3616 40.6053C67.4242 39.1861 65.1495 36.6861 64.0133 33.6281C63.0793 31.0547 62.8685 28.2745 63.404 25.5896C63.8463 23.3985 64.7 21.3111 65.9197 19.4379C66.9435 17.8415 68.2331 16.4322 69.7326 15.2712C71.2257 14.1516 72.8832 13.2698 74.6461 12.6572H74.6658ZM73.5652 28.9898C74.3071 31.4267 75.7002 33.6149 77.5942 35.3184C78.2658 35.9681 79.1051 36.418 80.018 36.6176C80.9308 36.8173 81.8813 36.7587 82.7628 36.4486C83.6443 36.1384 84.4219 35.589 85.0087 34.8617C85.5954 34.1344 85.9681 33.2581 86.0848 32.331C86.4833 29.8092 86.1842 27.2264 85.22 24.8624C84.474 22.4505 83.0722 20.2935 81.1713 18.6321C80.5117 17.982 79.6878 17.5234 78.7878 17.3053C77.8877 17.0872 76.9452 17.1178 76.0612 17.3939C75.1976 17.7494 74.4459 18.3315 73.8855 19.0787C73.3251 19.8259 72.9768 20.7105 72.8773 21.6391C72.4161 24.1055 72.6544 26.6518 73.5652 28.9898V28.9898Z" fill="#1A1A18"/>
<path fill-rule="evenodd" clip-rule="evenodd" d="M134.296 30.7193L130.366 45.4206L97.3467 36.5763L105.267 31.8396L109.198 17.1777L104.717 9.09984L125.884 14.7799L117.944 19.5362L113.777 35.0825L124.253 37.8931L134.296 30.7193Z" fill="#1A1A18"/>
<path fill-rule="evenodd" clip-rule="evenodd" d="M148.919 23.9976L166.608 38.8168C167.611 39.6348 168.551 40.5284 169.418 41.4898C170.131 42.3134 170.702 43.25 171.108 44.261C171.889 46.5328 172.144 48.9519 171.855 51.3365C171.6 54.2889 170.463 57.0964 168.593 59.3946C167.112 61.1313 165.229 62.4806 163.109 63.3254C161.364 64.0829 159.467 64.426 157.567 64.3278C155.785 64.2155 154.04 63.7758 152.417 63.0306C150.783 62.3292 149.255 61.4031 147.877 60.2791L130.68 45.853L139.878 44.9096L149.705 33.294L149.057 24.0763L148.919 23.9976ZM146.148 51.3758L149.469 54.147C150.776 55.4846 152.465 56.3841 154.304 56.7217C156.27 56.7217 158.333 55.2869 160.77 52.3978C161.674 51.4816 162.387 50.3944 162.866 49.1998C163.345 48.0053 163.581 46.7272 163.561 45.4403C163.46 44.508 163.171 43.6058 162.712 42.7883C162.252 41.9708 161.632 41.255 160.888 40.684L157.488 37.8538L146.148 51.3758Z" fill="#1A1A18"/>
<path fill-rule="evenodd" clip-rule="evenodd" d="M79.6974 157.94L73.8012 169.025C73.35 166.104 72.3781 163.289 70.9317 160.711C69.6796 158.418 67.8063 156.525 65.5268 155.248C64.6591 154.773 63.6858 154.524 62.6966 154.524C61.7075 154.524 60.7342 154.773 59.8664 155.248C57.4881 156.606 55.5869 158.665 54.4223 161.144C53.0648 163.323 52.4254 165.874 52.5944 168.436C52.7248 169.356 53.0823 170.23 53.6348 170.978C54.1872 171.726 54.9171 172.325 55.7588 172.72C56.6745 173.263 57.6596 173.68 58.6872 173.958C59.8209 174.191 60.9967 174.11 62.0874 173.722L62.8146 172.386L59.6502 163.109L79.1078 173.506L70.2831 176.395L65.9985 184.395L64.0331 179.992C60.1885 180.108 56.3784 179.235 52.9678 177.457C51.8078 176.828 50.6974 176.112 49.6463 175.314C46.5997 172.974 44.5049 169.608 43.7501 165.841C43.0526 162.683 43.5276 159.379 45.0866 156.545C45.9086 154.984 47.0151 153.591 48.3491 152.437C51.8001 149.529 56.2499 148.084 60.7509 148.408C63.3339 148.636 65.8425 149.392 68.1212 150.629C69.7951 151.52 71.3147 152.675 72.6219 154.049C73.9555 155.459 75.0033 157.114 75.7076 158.923L79.6974 157.94Z" fill="#1A1A18"/>
<path fill-rule="evenodd" clip-rule="evenodd" d="M114.799 162.146L108.825 167.708L100.511 179.933L100.413 183.589L106.663 190.389L84.9252 189.839L91.5093 183.373L91.6076 179.717L83.6084 166.647L77.9087 161.222L98.5455 161.733L94.0447 166.922L98.5062 173.86L103.203 166.627L98.8993 161.753L114.799 162.146Z" fill="#1A1A18"/>
<path fill-rule="evenodd" clip-rule="evenodd" d="M130.051 152.83L139.937 161.93L135.849 149.175L152.476 138.719L150.57 147.759L158.648 160.594L167.61 162.795L149.607 174.116L151.199 165.271L141.392 149.705L149.214 174.371L145.204 176.906L126.749 159.925L136.085 174.784L144.752 177.182L129.953 186.498L131.859 177.457L123.781 164.623L114.8 162.421L130.051 152.83Z" fill="#1A1A18"/>
</g>
<defs>
<clipPath id="clip0_124_154">
<rect width="200" height="200" fill="white"/>
</clipPath>
</defs>
</svg>
